<svg width="228" height="16" viewBox="0 0 228 16" fill="none" xmlns="http://www.w3.org/2000/svg">
<path d="M25.5934 11.6994C28.0956 11.6994 29.4428 10.3512 29.4428 7.84737V4.04737C29.4428 1.54353 28.0956 0.195312 25.5934 0.195312H0V15.8118H3.5373V11.6994H25.5934ZM25.9055 4.25559V7.63915C25.9055 8.04518 25.6871 8.26381 25.2813 8.26381H3.5373V3.63093H25.2813C25.6871 3.63093 25.9055 3.84956 25.9055 4.25559ZM37.3498 15.8118C34.8476 15.8118 33.5003 14.4635 33.5003 11.9597V4.04737C33.5003 1.54353 34.8476 0.195312 37.3498 0.195312H58.5216C61.0237 0.195312 62.371 1.54353 62.371 4.04737V11.9597C62.371 14.4635 61.0237 15.8118 58.5216 15.8118H37.3498ZM58.2094 12.3761C58.6152 12.3761 58.8337 12.1575 58.8337 11.7515V4.25559C58.8337 3.84956 58.6152 3.63093 58.2094 3.63093H37.6619C37.2561 3.63093 37.0376 3.84956 37.0376 4.25559V11.7515C37.0376 12.1575 37.2561 12.3761 37.6619 12.3761H58.2094ZM92.386 10.5022C94.4587 11.3744 95.9157 13.4224 95.9233 15.8118H92.386C92.386 13.0008 91.0856 11.6994 88.2765 11.6994H70.0178V15.8118H66.4805V0.195312H92.0739C94.576 0.195312 95.9233 1.54353 95.9233 4.04737V6.65739C95.9233 9.05504 94.6879 10.3928 92.386 10.5022ZM91.7618 8.26381C92.1676 8.26381 92.386 8.04518 92.386 7.63915V4.25559C92.386 3.84956 92.1676 3.63093 91.7618 3.63093H70.0178V8.26381H91.7618ZM99.8248 4.04737C99.8248 1.54353 101.172 0.195312 103.674 0.195312H128.747V3.11038H103.986C103.581 3.11038 103.362 3.32901 103.362 3.73504V5.92134C103.362 6.32737 103.581 6.546 103.986 6.546H125.418C127.92 6.546 129.268 7.89422 129.268 10.3981V11.9597C129.268 14.4635 127.92 15.8118 125.418 15.8118H100.345V12.8967H125.106C125.512 12.8967 125.73 12.6781 125.73 12.272V10.0857C125.73 9.6797 125.512 9.46107 125.106 9.46107H103.674C101.172 9.46107 99.8248 8.11285 99.8248 5.60901V4.04737ZM133.273 4.04737C133.273 1.54353 134.62 0.195312 137.123 0.195312H161.572V3.63093H137.435C137.029 3.63093 136.81 3.84956 136.81 4.25559V11.7515C136.81 12.1575 137.029 12.3761 137.435 12.3761H161.572V15.8118H137.123C134.62 15.8118 133.273 14.4635 133.273 11.9597V4.04737ZM193.407 0.195312V15.8118H189.87V9.72134H169.218V15.8118H165.681V0.195312H169.218V6.28572H189.87V0.195312H193.407ZM201.106 3.11038V6.546H228V9.46107H201.106V12.8967H228V15.8118H197.569V0.195312H228V3.11038H201.106Z" fill="#010205"/>
</svg>
