<svg width="131" height="32" viewBox="0 0 131 32" fill="none" xmlns="http://www.w3.org/2000/svg">
<path d="M104.31 19.8681C104.31 21.0036 104.929 22.0359 105.91 22.6036L115.51 28.1262C116.49 28.6939 117.677 28.6939 118.658 28.1262L123.458 25.3391L128.258 22.552C129.239 21.9842 129.858 20.952 129.858 19.8165V8.71972C129.858 7.58424 129.239 6.55198 128.258 5.98424L118.658 0.51327C117.677 -0.0544721 116.49 -0.0544721 115.51 0.51327L105.91 6.03585C104.929 6.60359 104.31 7.63585 104.31 8.77134V14.2939V19.8681Z" fill="url(#paint0_linear_4040_292828)"/>
<mask id="mask0_4040_292828" style="mask-type:alpha" maskUnits="userSpaceOnUse" x="104" y="0" width="26" height="29">
<path d="M104.31 19.8712C104.31 21.0067 104.929 22.039 105.91 22.6067L115.51 28.1293C116.49 28.697 117.677 28.697 118.658 28.1293L123.458 25.3422L128.258 22.5551C129.239 21.9874 129.858 20.9551 129.858 19.8196V8.72284C129.858 7.58735 129.239 6.55509 128.258 5.98735L118.658 0.516383C117.677 -0.0513593 116.49 -0.0513593 115.51 0.516383L105.91 6.03896C104.929 6.60671 104.31 7.63896 104.31 8.77445V14.297V19.8712Z" fill="#BB302C"/>
</mask>
<g mask="url(#mask0_4040_292828)">
<path fill-rule="evenodd" clip-rule="evenodd" d="M128.054 9.16557L128.789 10.3767L128.051 11.5917H126.46L125.725 10.3805L126.463 9.16557H128.054ZM126.581 9.3681L125.969 10.3767L126.583 11.3891H127.933L128.545 10.3805L127.931 9.3681H126.581Z" fill="white"/>
<path fill-rule="evenodd" clip-rule="evenodd" d="M125.908 8.05307L126.644 9.26423L125.906 10.4792H124.379L123.643 9.26802L124.381 8.05307H125.908ZM124.499 8.2556L123.887 9.26423L124.502 10.2766H125.788L126.4 9.26802L125.785 8.2556H124.499Z" fill="white"/>
<path fill-rule="evenodd" clip-rule="evenodd" d="M130.317 10.2843L131.052 11.4955L130.315 12.7104H128.606L127.87 11.4993L128.608 10.2843H130.317ZM128.726 10.4869L128.114 11.4955L128.729 12.5079H130.197L130.809 11.4993L130.194 10.4869H128.726Z" fill="white"/>
<path fill-rule="evenodd" clip-rule="evenodd" d="M128.054 11.3999L128.789 12.6111L128.051 13.8261H126.46L125.725 12.6149L126.463 11.3999H128.054ZM126.581 11.6025L125.969 12.6111L126.583 13.6235H127.933L128.545 12.6149L127.931 11.6025H126.581Z" fill="white"/>
<path fill-rule="evenodd" clip-rule="evenodd" d="M125.908 10.2843L126.644 11.4955L125.906 12.7104H124.379L123.643 11.4993L124.381 10.2843H125.908ZM124.499 10.4869L123.887 11.4955L124.502 12.5079H125.788L126.4 11.4993L125.785 10.4869H124.499Z" fill="white"/>
<path fill-rule="evenodd" clip-rule="evenodd" d="M130.317 12.5187L131.052 13.7299L130.315 14.9448H128.606L127.87 13.7336L128.608 12.5187H130.317ZM128.726 12.7212L128.114 13.7299L128.729 14.7423H130.197L130.809 13.7336L130.194 12.7212H128.726Z" fill="white"/>
<path fill-rule="evenodd" clip-rule="evenodd" d="M128.04 13.6218L128.775 14.833L128.038 16.0479H126.447L125.712 14.8368L126.449 13.6218H128.04ZM126.567 13.8244L125.955 14.833L126.57 15.8454H127.92L128.532 14.8368L127.917 13.8244H126.567Z" fill="white"/>
<path fill-rule="evenodd" clip-rule="evenodd" d="M125.895 12.5062L126.63 13.7174L125.893 14.9323H124.365L123.63 13.7211L124.367 12.5062H125.895ZM124.486 12.7087L123.874 13.7174L124.488 14.7298H125.774L126.386 13.7211L125.772 12.7087H124.486Z" fill="white"/>
<path fill-rule="evenodd" clip-rule="evenodd" d="M130.304 14.7343L131.039 15.9455L130.301 17.1604H128.592L127.857 15.9493L128.594 14.7343H130.304ZM128.713 14.9369L128.1 15.9455L128.715 16.9579H130.183L130.795 15.9493L130.181 14.9369H128.713Z" fill="white"/>
<path fill-rule="evenodd" clip-rule="evenodd" d="M130.317 8.05307L131.052 9.26423L130.315 10.4792H128.606L127.87 9.26802L128.608 8.05307H130.317ZM128.726 8.2556L128.114 9.26423L128.729 10.2766H130.197L130.809 9.26802L130.194 8.2556H128.726Z" fill="white"/>
<path fill-rule="evenodd" clip-rule="evenodd" d="M128.054 6.93119L128.789 8.14235L128.051 9.35731H126.46L125.725 8.14615L126.463 6.93119H128.054ZM126.581 7.13372L125.969 8.14235L126.583 9.15477H127.933L128.545 8.14615L127.931 7.13372H126.581Z" fill="white"/>
<path fill-rule="evenodd" clip-rule="evenodd" d="M130.317 5.81557L131.052 7.02673L130.315 8.24168H128.606L127.87 7.03052L128.608 5.81557H130.317ZM128.726 6.0181L128.114 7.02673L128.729 8.03915H130.197L130.809 7.03052L130.194 6.0181H128.726Z" fill="white"/>
<path fill-rule="evenodd" clip-rule="evenodd" d="M119.764 15.8562L120.499 17.0673L119.762 18.2823H118.291L117.556 17.0711L118.293 15.8562H119.764ZM118.412 16.0587L117.799 17.0673L118.414 18.0798H119.643L120.255 17.0711L119.641 16.0587H118.412Z" fill="white"/>
<path fill-rule="evenodd" clip-rule="evenodd" d="M117.739 14.7437L118.474 15.9548L117.737 17.1698H116.266L115.531 15.9586L116.269 14.7437H117.739ZM116.387 14.9462L115.775 15.9548L116.389 16.9673H117.619L118.231 15.9586L117.616 14.9462H116.387Z" fill="white"/>
<path fill-rule="evenodd" clip-rule="evenodd" d="M121.789 16.9749L122.524 18.1861L121.786 19.401H120.316L119.581 18.1899L120.318 16.9749H121.789ZM120.436 17.1775L119.824 18.1861L120.439 19.1985H121.668L122.28 18.1899L121.666 17.1775H120.436Z" fill="white"/>
<path fill-rule="evenodd" clip-rule="evenodd" d="M123.813 18.0906L124.548 19.3017L123.811 20.5167H122.34L121.605 19.3055L122.343 18.0906H123.813ZM122.461 18.2931L121.849 19.3017L122.463 20.3141H123.693L124.305 19.3055L123.69 18.2931H122.461Z" fill="white"/>
<path fill-rule="evenodd" clip-rule="evenodd" d="M125.895 19.2093L126.63 20.4205L125.893 21.6354H124.365L123.63 20.4243L124.367 19.2093H125.895ZM124.486 19.4118L123.874 20.4205L124.488 21.4329H125.774L126.386 20.4243L125.772 19.4118H124.486Z" fill="white"/>
<path fill-rule="evenodd" clip-rule="evenodd" d="M119.764 18.0906L120.499 19.3017L119.762 20.5167H118.291L117.556 19.3055L118.293 18.0906H119.764ZM118.412 18.2931L117.799 19.3017L118.414 20.3141H119.643L120.255 19.3055L119.641 18.2931H118.412Z" fill="white"/>
<path fill-rule="evenodd" clip-rule="evenodd" d="M117.739 16.9749L118.474 18.1861L117.737 19.401H116.266L115.531 18.1899L116.269 16.9749H117.739ZM116.387 17.1775L115.775 18.1861L116.389 19.1985H117.619L118.231 18.1899L117.616 17.1775H116.387Z" fill="white"/>
<path fill-rule="evenodd" clip-rule="evenodd" d="M121.789 19.2093L122.524 20.4205L121.786 21.6354H120.316L119.581 20.4243L120.318 19.2093H121.789ZM120.436 19.4118L119.824 20.4205L120.439 21.4329H121.668L122.28 20.4243L121.666 19.4118H120.436Z" fill="white"/>
<path fill-rule="evenodd" clip-rule="evenodd" d="M123.813 20.3249L124.548 21.5361L123.811 22.751H122.34L121.605 21.5399L122.343 20.3249H123.813ZM122.461 20.5275L121.849 21.5361L122.463 22.5485H123.693L124.305 21.5399L123.69 20.5275H122.461Z" fill="white"/>
<path fill-rule="evenodd" clip-rule="evenodd" d="M125.895 21.4406L126.63 22.6517L125.893 23.8667H124.365L123.63 22.6555L124.367 21.4406H125.895ZM124.486 21.6431L123.874 22.6517L124.488 23.6641H125.774L126.386 22.6555L125.772 21.6431H124.486Z" fill="white"/>
<path fill-rule="evenodd" clip-rule="evenodd" d="M119.75 20.3124L120.486 21.5236L119.748 22.7385H118.278L117.542 21.5274L118.28 20.3124H119.75ZM118.398 20.515L117.786 21.5236L118.401 22.536H119.63L120.242 21.5274L119.627 20.515H118.398Z" fill="white"/>
<path fill-rule="evenodd" clip-rule="evenodd" d="M117.726 19.1968L118.461 20.408L117.723 21.6229H116.253L115.518 20.4118L116.255 19.1968H117.726ZM116.374 19.3993L115.761 20.408L116.376 21.4204H117.605L118.217 20.4118L117.603 19.3993H116.374Z" fill="white"/>
<path fill-rule="evenodd" clip-rule="evenodd" d="M121.775 21.4249L122.51 22.6361L121.773 23.851H120.302L119.567 22.6399L120.305 21.4249H121.775ZM120.423 21.6275L119.811 22.6361L120.425 23.6485H121.654L122.267 22.6399L121.652 21.6275H120.423Z" fill="white"/>
<path fill-rule="evenodd" clip-rule="evenodd" d="M123.8 22.5468L124.535 23.758L123.797 24.9729H122.327L121.592 23.7618L122.329 22.5468H123.8ZM122.448 22.7493L121.835 23.758L122.45 24.7704H123.679L124.291 23.7618L123.677 22.7493H122.448Z" fill="white"/>
<path fill-rule="evenodd" clip-rule="evenodd" d="M125.881 23.6624L126.617 24.8736L125.879 26.0885H124.352L123.616 24.8774L124.354 23.6624H125.881ZM124.472 23.865L123.86 24.8736L124.475 25.886H125.761L126.373 24.8774L125.758 23.865H124.472Z" fill="white"/>
<path fill-rule="evenodd" clip-rule="evenodd" d="M121.789 14.7437L122.524 15.9548L121.786 17.1698H120.316L119.581 15.9586L120.318 14.7437H121.789ZM120.436 14.9462L119.824 15.9548L120.439 16.9673H121.668L122.28 15.9586L121.666 14.9462H120.436Z" fill="white"/>
<path fill-rule="evenodd" clip-rule="evenodd" d="M119.764 13.6218L120.499 14.833L119.762 16.0479H118.291L117.556 14.8368L118.293 13.6218H119.764ZM118.412 13.8243L117.799 14.833L118.414 15.8454H119.643L120.255 14.8368L119.641 13.8243H118.412Z" fill="white"/>
<path fill-rule="evenodd" clip-rule="evenodd" d="M123.813 15.8562L124.548 17.0673L123.811 18.2823H122.34L121.605 17.0711L122.343 15.8562H123.813ZM122.461 16.0587L121.849 17.0673L122.463 18.0798H123.693L124.305 17.0711L123.69 16.0587H122.461Z" fill="white"/>
<path fill-rule="evenodd" clip-rule="evenodd" d="M125.895 16.9749L126.63 18.1861L125.893 19.401H124.365L123.63 18.1899L124.367 16.9749H125.895ZM124.486 17.1775L123.874 18.1861L124.488 19.1985H125.774L126.386 18.1899L125.772 17.1775H124.486Z" fill="white"/>
<path fill-rule="evenodd" clip-rule="evenodd" d="M128.04 18.0906L128.775 19.3017L128.038 20.5167H126.447L125.712 19.3055L126.449 18.0906H128.04ZM126.567 18.2931L125.955 19.3017L126.57 20.3141H127.92L128.532 19.3055L127.917 18.2931H126.567Z" fill="white"/>
<path fill-rule="evenodd" clip-rule="evenodd" d="M123.813 13.6218L124.548 14.833L123.811 16.0479H122.34L121.605 14.8368L122.343 13.6218H123.813ZM122.461 13.8243L121.849 14.833L122.463 15.8454H123.693L124.305 14.8368L123.69 13.8243H122.461Z" fill="white"/>
<path fill-rule="evenodd" clip-rule="evenodd" d="M121.789 12.5062L122.524 13.7173L121.786 14.9323H120.316L119.581 13.7211L120.318 12.5062H121.789ZM120.436 12.7087L119.824 13.7173L120.439 14.7298H121.668L122.28 13.7211L121.666 12.7087H120.436Z" fill="white"/>
<path fill-rule="evenodd" clip-rule="evenodd" d="M125.895 14.7437L126.63 15.9548L125.893 17.1698H124.365L123.63 15.9586L124.367 14.7437H125.895ZM124.486 14.9462L123.874 15.9548L124.488 16.9673H125.774L126.386 15.9586L125.772 14.9462H124.486Z" fill="white"/>
<path fill-rule="evenodd" clip-rule="evenodd" d="M128.04 15.8562L128.775 17.0673L128.038 18.2823H126.447L125.712 17.0711L126.449 15.8562H128.04ZM126.567 16.0587L125.955 17.0673L126.57 18.0798H127.92L128.532 17.0711L127.917 16.0587H126.567Z" fill="white"/>
<path fill-rule="evenodd" clip-rule="evenodd" d="M130.304 16.9749L131.039 18.1861L130.301 19.401H128.592L127.857 18.1899L128.594 16.9749H130.304ZM128.713 17.1775L128.1 18.1861L128.715 19.1985H130.183L130.795 18.1899L130.181 17.1775H128.713Z" fill="white"/>
<path fill-rule="evenodd" clip-rule="evenodd" d="M113.69 1.36243L114.425 2.57359L113.688 3.78855H112.217L111.482 2.57738L112.219 1.36243H113.69ZM112.338 1.56496L111.725 2.57359L112.34 3.58601H113.569L114.181 2.57738L113.567 1.56496L112.338 1.56496Z" fill="white"/>
<path fill-rule="evenodd" clip-rule="evenodd" d="M113.69 3.59368L114.425 4.80484L113.688 6.0198H112.217L111.482 4.80863L112.219 3.59368H113.69ZM112.338 3.79621L111.725 4.80484L112.34 5.81726H113.569L114.181 4.80863L113.567 3.79621L112.338 3.79621Z" fill="white"/>
<path fill-rule="evenodd" clip-rule="evenodd" d="M109.627 3.57805L110.362 4.78921L109.625 6.00417H108.154L107.419 4.79301L108.157 3.57805H109.627ZM108.275 3.78059L107.663 4.78921L108.277 5.80164H109.506L110.119 4.79301L109.504 3.78059L108.275 3.78059Z" fill="white"/>
<path fill-rule="evenodd" clip-rule="evenodd" d="M111.652 4.69993L112.387 5.91109L111.649 7.12605H110.179L109.444 5.91488L110.181 4.69993H111.652ZM110.3 4.90246L109.687 5.91109L110.302 6.92351H111.531L112.143 5.91488L111.529 4.90246L110.3 4.90246Z" fill="white"/>
<path fill-rule="evenodd" clip-rule="evenodd" d="M113.676 5.81555L114.412 7.02671L113.674 8.24167H112.204L111.468 7.03051L112.206 5.81555H113.676ZM112.324 6.01809L111.712 7.02671L112.327 8.03914H113.556L114.168 7.03051L113.553 6.01809L112.324 6.01809Z" fill="white"/>
<path fill-rule="evenodd" clip-rule="evenodd" d="M117.739 -0.871948L118.474 0.339215L117.737 1.55417H116.266L115.531 0.343007L116.269 -0.871948H117.739ZM116.387 -0.669414L115.775 0.339214L116.389 1.35164H117.619L118.231 0.343008L117.616 -0.669414H116.387Z" fill="white"/>
<path fill-rule="evenodd" clip-rule="evenodd" d="M128.054 20.3249L128.789 21.5361L128.051 22.751H126.46L125.725 21.5399L126.463 20.3249H128.054ZM126.581 20.5275L125.969 21.5361L126.583 22.5485H127.933L128.545 21.5399L127.931 20.5275H126.581Z" fill="white"/>
<path fill-rule="evenodd" clip-rule="evenodd" d="M130.317 19.2031L131.052 20.4142L130.315 21.6292H128.606L127.87 20.418L128.608 19.2031H130.317ZM128.726 19.4056L128.114 20.4142L128.729 21.4266H130.197L130.809 20.418L130.194 19.4056H128.726Z" fill="white"/>
<path fill-rule="evenodd" clip-rule="evenodd" d="M117.753 3.5718L118.488 4.78296L117.75 5.99792H116.28L115.545 4.78676L116.282 3.5718H117.753ZM116.401 3.77434L115.788 4.78296L116.403 5.79539H117.632L118.244 4.78676L117.63 3.77434L116.401 3.77434Z" fill="white"/>
<path fill-rule="evenodd" clip-rule="evenodd" d="M115.728 2.4593L116.463 3.67046L115.726 4.88542H114.255L113.52 3.67426L114.258 2.4593H115.728ZM114.376 2.66184L113.764 3.67046L114.378 4.68289H115.607L116.22 3.67426L115.605 2.66184L114.376 2.66184Z" fill="white"/>
<path fill-rule="evenodd" clip-rule="evenodd" d="M119.777 4.69055L120.513 5.90171L119.775 7.11667H118.305L117.569 5.90551L118.307 4.69055H119.777ZM118.425 4.89309L117.813 5.90171L118.428 6.91414H119.657L120.269 5.90551L119.654 4.89309L118.425 4.89309Z" fill="white"/>
<path fill-rule="evenodd" clip-rule="evenodd" d="M121.802 5.80618L122.537 7.01734L121.8 8.2323H120.329L119.594 7.02113L120.332 5.80618H121.802ZM120.45 6.00871L119.838 7.01734L120.452 8.02976H121.681L122.294 7.02113L121.679 6.00871L120.45 6.00871Z" fill="white"/>
<path fill-rule="evenodd" clip-rule="evenodd" d="M123.827 6.92493L124.562 8.13609L123.824 9.35105H122.354L121.619 8.13988L122.356 6.92493H123.827ZM122.475 7.12746L121.862 8.13609L122.477 9.14851H123.706L124.318 8.13988L123.704 7.12746L122.475 7.12746Z" fill="white"/>
<path fill-rule="evenodd" clip-rule="evenodd" d="M117.753 5.80618L118.488 7.01734L117.75 8.2323H116.28L115.545 7.02113L116.282 5.80618H117.753ZM116.401 6.00871L115.788 7.01734L116.403 8.02976H117.632L118.244 7.02113L117.63 6.00871L116.401 6.00871Z" fill="white"/>
<path fill-rule="evenodd" clip-rule="evenodd" d="M115.728 4.69055L116.463 5.90171L115.726 7.11667H114.255L113.52 5.90551L114.258 4.69055H115.728ZM114.376 4.89309L113.764 5.90171L114.378 6.91414H115.607L116.22 5.90551L115.605 4.89309L114.376 4.89309Z" fill="white"/>
<path fill-rule="evenodd" clip-rule="evenodd" d="M119.777 6.92493L120.513 8.13609L119.775 9.35105H118.305L117.569 8.13988L118.307 6.92493H119.777ZM118.425 7.12746L117.813 8.13609L118.428 9.14851H119.657L120.269 8.13988L119.654 7.12746L118.425 7.12746Z" fill="white"/>
<path fill-rule="evenodd" clip-rule="evenodd" d="M121.802 8.04055L122.537 9.25172L121.8 10.4667H120.329L119.594 9.25551L120.332 8.04055H121.802ZM120.45 8.24309L119.838 9.25172L120.452 10.2641H121.681L122.294 9.25551L121.679 8.24309H120.45Z" fill="white"/>
<path fill-rule="evenodd" clip-rule="evenodd" d="M123.827 9.15618L124.562 10.3673L123.824 11.5823H122.354L121.619 10.3711L122.356 9.15618H123.827ZM122.475 9.35871L121.862 10.3673L122.477 11.3798H123.706L124.318 10.3711L123.704 9.35871H122.475Z" fill="white"/>
<path fill-rule="evenodd" clip-rule="evenodd" d="M117.739 8.02805L118.474 9.23922L117.737 10.4542H116.266L115.531 9.24301L116.269 8.02805H117.739ZM116.387 8.23059L115.775 9.23922L116.389 10.2516H117.619L118.231 9.24301L117.616 8.23059H116.387Z" fill="white"/>
<path fill-rule="evenodd" clip-rule="evenodd" d="M115.714 6.91243L116.45 8.12359L115.712 9.33855H114.242L113.507 8.12738L114.244 6.91243H115.714ZM114.362 7.11496L113.75 8.12359L114.365 9.13601H115.594L116.206 8.12738L115.592 7.11496L114.362 7.11496Z" fill="white"/>
<path fill-rule="evenodd" clip-rule="evenodd" d="M119.764 9.14055L120.499 10.3517L119.762 11.5667H118.291L117.556 10.3555L118.293 9.14055H119.764ZM118.412 9.34309L117.799 10.3517L118.414 11.3641H119.643L120.255 10.3555L119.641 9.34309H118.412Z" fill="white"/>
<path fill-rule="evenodd" clip-rule="evenodd" d="M121.789 10.2624L122.524 11.4736L121.786 12.6885H120.316L119.581 11.4774L120.318 10.2624H121.789ZM120.436 10.465L119.824 11.4736L120.439 12.486H121.668L122.28 11.4774L121.666 10.465H120.436Z" fill="white"/>
<path fill-rule="evenodd" clip-rule="evenodd" d="M123.813 11.3781L124.548 12.5892L123.811 13.8042H122.34L121.605 12.593L122.343 11.3781H123.813ZM122.461 11.5806L121.849 12.5892L122.463 13.6016H123.693L124.305 12.593L123.69 11.5806H122.461Z" fill="white"/>
<path fill-rule="evenodd" clip-rule="evenodd" d="M119.777 2.4593L120.513 3.67046L119.775 4.88542H118.305L117.569 3.67426L118.307 2.4593H119.777ZM118.425 2.66184L117.813 3.67046L118.428 4.68289H119.657L120.269 3.67426L119.654 2.66184L118.425 2.66184Z" fill="white"/>
<path fill-rule="evenodd" clip-rule="evenodd" d="M117.753 1.33743L118.488 2.54859L117.75 3.76355H116.28L115.545 2.55238L116.282 1.33743H117.753ZM116.401 1.53996L115.788 2.54859L116.403 3.56101H117.632L118.244 2.55238L117.63 1.53996L116.401 1.53996Z" fill="white"/>
<path fill-rule="evenodd" clip-rule="evenodd" d="M121.802 3.5718L122.537 4.78296L121.8 5.99792H120.329L119.594 4.78676L120.332 3.5718H121.802ZM120.45 3.77434L119.838 4.78296L120.452 5.79539H121.681L122.294 4.78676L121.679 3.77434L120.45 3.77434Z" fill="white"/>
<path fill-rule="evenodd" clip-rule="evenodd" d="M123.827 4.69055L124.562 5.90171L123.824 7.11667H122.354L121.619 5.90551L122.356 4.69055H123.827ZM122.475 4.89309L121.862 5.90171L122.477 6.91414H123.706L124.318 5.90551L123.704 4.89309L122.475 4.89309Z" fill="white"/>
<path fill-rule="evenodd" clip-rule="evenodd" d="M125.908 5.80618L126.644 7.01734L125.906 8.2323H124.379L123.643 7.02113L124.381 5.80618H125.908ZM124.499 6.00871L123.887 7.01734L124.502 8.02976H125.788L126.4 7.02113L125.785 6.00871L124.499 6.00871Z" fill="white"/>
<path fill-rule="evenodd" clip-rule="evenodd" d="M121.802 1.33743L122.537 2.54859L121.8 3.76355H120.329L119.594 2.55238L120.332 1.33743H121.802ZM120.45 1.53996L119.838 2.54859L120.452 3.56101H121.681L122.294 2.55238L121.679 1.53996L120.45 1.53996Z" fill="white"/>
<path fill-rule="evenodd" clip-rule="evenodd" d="M119.777 0.221802L120.513 1.43296L119.775 2.64792H118.305L117.569 1.43676L118.307 0.221802H119.777ZM118.425 0.424336L117.813 1.43296L118.428 2.44539H119.657L120.269 1.43676L119.654 0.424336H118.425Z" fill="white"/>
<path fill-rule="evenodd" clip-rule="evenodd" d="M123.827 2.4593L124.562 3.67046L123.824 4.88542H122.354L121.619 3.67426L122.356 2.4593H123.827ZM122.475 2.66184L121.862 3.67046L122.477 4.68289H123.706L124.318 3.67426L123.704 2.66184L122.475 2.66184Z" fill="white"/>
<path fill-rule="evenodd" clip-rule="evenodd" d="M125.908 3.5718L126.644 4.78296L125.906 5.99792H124.379L123.643 4.78676L124.381 3.5718H125.908ZM124.499 3.77434L123.887 4.78296L124.502 5.79539H125.788L126.4 4.78676L125.785 3.77434L124.499 3.77434Z" fill="white"/>
<path fill-rule="evenodd" clip-rule="evenodd" d="M128.054 4.69055L128.789 5.90171L128.051 7.11667H126.46L125.725 5.90551L126.463 4.69055H128.054ZM126.581 4.89309L125.969 5.90171L126.583 6.91414H127.933L128.545 5.90551L127.931 4.89309L126.581 4.89309Z" fill="white"/>
<path d="M130.869 13.8261L130.134 12.6149L130.872 11.3999M130.99 11.6025L130.378 12.6111L130.992 13.6235M130.869 16.0604L130.134 14.8493L130.872 13.6343M130.99 13.8369L130.378 14.8455L130.992 15.8579M130.856 18.2823L130.12 17.0711L130.858 15.8562M130.976 16.0587L130.364 17.0674L130.979 18.0798M130.869 11.5917L130.134 10.3805L130.872 9.16557M130.99 9.3681L130.378 10.3767L130.992 11.3891M130.869 9.35731L130.134 8.14615L130.872 6.93119M130.99 7.13372L130.378 8.14235L130.992 9.15477M112.4 1.45484L111.663 2.6698M111.545 2.46726L112.157 1.45863M109.638 3.78855H108.168M108.291 3.58601H109.52M111.665 2.47805L112.4 3.68921L111.663 4.90417H110.192L109.457 3.69301M109.701 3.68921L110.315 4.70164H111.545L112.157 3.69301L111.542 2.68059M108.337 3.67671L107.6 4.89167M107.482 4.68914L108.094 3.68051M113.688 1.55417H112.217M112.34 1.35164H113.569M115.714 0.243677L116.45 1.45484L115.712 2.6698H114.242L113.507 1.45863M113.75 1.45484L114.365 2.46726H115.594L116.206 1.45863L115.592 0.446211M116.45 -0.779535L115.712 0.43542M115.594 0.232886L116.206 -0.775742M130.317 21.4374H128.608L127.87 22.6524L128.606 23.8635M128.729 23.661L128.114 22.6486L128.726 21.64H130.194M128.789 23.7673L128.054 22.5562H126.463L125.725 23.7711L126.46 24.9823M126.583 24.7798L125.969 23.7673L126.581 22.7587H127.931L128.545 23.7711M125.712 25.993L126.449 24.7781M125.955 25.9892L126.567 24.9806M130.134 21.5399L130.871 20.3249M130.378 21.5361L130.99 20.5275M130.869 20.5135L130.134 19.3024L130.871 18.0874M130.99 18.29L130.378 19.2986L130.992 20.311M128.054 9.16557L128.789 10.3767L128.051 11.5917H126.46L125.725 10.3805L126.463 9.16557H128.054ZM125.969 10.3767L126.581 9.3681H127.931L128.545 10.3805L127.933 11.3891H126.583L125.969 10.3767ZM125.908 8.05307L126.644 9.26423L125.906 10.4792H124.379L123.643 9.26802L124.381 8.05307H125.908ZM123.887 9.26423L124.499 8.2556H125.785L126.4 9.26802L125.788 10.2766H124.502L123.887 9.26423ZM130.317 10.2843L131.052 11.4955L130.315 12.7104H128.606L127.87 11.4993L128.608 10.2843H130.317ZM128.114 11.4955L128.726 10.4869H130.194L130.809 11.4993L130.197 12.5079H128.729L128.114 11.4955ZM128.054 11.3999L128.789 12.6111L128.051 13.8261H126.46L125.725 12.6149L126.463 11.3999H128.054ZM125.969 12.6111L126.581 11.6025H127.931L128.545 12.6149L127.933 13.6235H126.583L125.969 12.6111ZM125.908 10.2843L126.644 11.4955L125.906 12.7104H124.379L123.643 11.4993L124.381 10.2843H125.908ZM123.887 11.4955L124.499 10.4869H125.785L126.4 11.4993L125.788 12.5079H124.502L123.887 11.4955ZM130.317 12.5187L131.052 13.7299L130.315 14.9448H128.606L127.87 13.7336L128.608 12.5187H130.317ZM128.114 13.7299L128.726 12.7212H130.194L130.809 13.7336L130.197 14.7423H128.729L128.114 13.7299ZM128.04 13.6218L128.775 14.833L128.038 16.0479H126.447L125.712 14.8368L126.449 13.6218H128.04ZM125.955 14.833L126.567 13.8244H127.917L128.532 14.8368L127.92 15.8454H126.57L125.955 14.833ZM125.895 12.5062L126.63 13.7174L125.893 14.9323H124.365L123.63 13.7211L124.367 12.5062H125.895ZM123.874 13.7174L124.486 12.7087H125.772L126.386 13.7211L125.774 14.7298H124.488L123.874 13.7174ZM130.304 14.7343L131.039 15.9455L130.301 17.1604H128.592L127.857 15.9493L128.594 14.7343H130.304ZM128.1 15.9455L128.713 14.9369H130.181L130.795 15.9493L130.183 16.9579H128.715L128.1 15.9455ZM130.317 8.05307L131.052 9.26423L130.315 10.4792H128.606L127.87 9.26802L128.608 8.05307H130.317ZM128.114 9.26423L128.726 8.2556H130.194L130.809 9.26802L130.197 10.2766H128.729L128.114 9.26423ZM128.054 6.93119L128.789 8.14235L128.051 9.35731H126.46L125.725 8.14615L126.463 6.93119H128.054ZM125.969 8.14235L126.581 7.13372H127.931L128.545 8.14615L127.933 9.15477H126.583L125.969 8.14235ZM130.317 5.81557L131.052 7.02673L130.315 8.24168H128.606L127.87 7.03052L128.608 5.81557H130.317ZM128.114 7.02673L128.726 6.0181H130.194L130.809 7.03052L130.197 8.03915H128.729L128.114 7.02673ZM119.764 15.8562L120.499 17.0673L119.762 18.2823H118.291L117.556 17.0711L118.293 15.8562H119.764ZM117.799 17.0673L118.412 16.0587H119.641L120.255 17.0711L119.643 18.0798H118.414L117.799 17.0673ZM117.739 14.7437L118.474 15.9548L117.737 17.1698H116.266L115.531 15.9586L116.269 14.7437H117.739ZM115.775 15.9548L116.387 14.9462H117.616L118.231 15.9586L117.619 16.9673H116.389L115.775 15.9548ZM121.789 16.9749L122.524 18.1861L121.786 19.401H120.316L119.581 18.1899L120.318 16.9749H121.789ZM119.824 18.1861L120.436 17.1775H121.666L122.28 18.1899L121.668 19.1985H120.439L119.824 18.1861ZM123.813 18.0906L124.548 19.3017L123.811 20.5167H122.34L121.605 19.3055L122.343 18.0906H123.813ZM121.849 19.3017L122.461 18.2931H123.69L124.305 19.3055L123.693 20.3141H122.463L121.849 19.3017ZM125.895 19.2093L126.63 20.4205L125.893 21.6354H124.365L123.63 20.4243L124.367 19.2093H125.895ZM123.874 20.4205L124.486 19.4118H125.772L126.386 20.4243L125.774 21.4329H124.488L123.874 20.4205ZM119.764 18.0906L120.499 19.3017L119.762 20.5167H118.291L117.556 19.3055L118.293 18.0906H119.764ZM117.799 19.3017L118.412 18.2931H119.641L120.255 19.3055L119.643 20.3141H118.414L117.799 19.3017ZM117.739 16.9749L118.474 18.1861L117.737 19.401H116.266L115.531 18.1899L116.269 16.9749H117.739ZM115.775 18.1861L116.387 17.1775H117.616L118.231 18.1899L117.619 19.1985H116.389L115.775 18.1861ZM121.789 19.2093L122.524 20.4205L121.786 21.6354H120.316L119.581 20.4243L120.318 19.2093H121.789ZM119.824 20.4205L120.436 19.4118H121.666L122.28 20.4243L121.668 21.4329H120.439L119.824 20.4205ZM123.813 20.3249L124.548 21.5361L123.811 22.751H122.34L121.605 21.5399L122.343 20.3249H123.813ZM121.849 21.5361L122.461 20.5275H123.69L124.305 21.5399L123.693 22.5485H122.463L121.849 21.5361ZM125.895 21.4406L126.63 22.6517L125.893 23.8667H124.365L123.63 22.6555L124.367 21.4406H125.895ZM123.874 22.6517L124.486 21.6431H125.772L126.386 22.6555L125.774 23.6641H124.488L123.874 22.6517ZM119.75 20.3124L120.486 21.5236L119.748 22.7385H118.278L117.542 21.5274L118.28 20.3124H119.75ZM117.786 21.5236L118.398 20.515H119.627L120.242 21.5274L119.63 22.536H118.401L117.786 21.5236ZM117.726 19.1968L118.461 20.408L117.723 21.6229H116.253L115.518 20.4118L116.255 19.1968H117.726ZM115.761 20.408L116.374 19.3993H117.603L118.217 20.4118L117.605 21.4204H116.376L115.761 20.408ZM121.775 21.4249L122.51 22.6361L121.773 23.851H120.302L119.567 22.6399L120.305 21.4249H121.775ZM119.811 22.6361L120.423 21.6275H121.652L122.267 22.6399L121.654 23.6485H120.425L119.811 22.6361ZM123.8 22.5468L124.535 23.758L123.797 24.9729H122.327L121.592 23.7618L122.329 22.5468H123.8ZM121.835 23.758L122.448 22.7493H123.677L124.291 23.7618L123.679 24.7704H122.45L121.835 23.758ZM125.881 23.6624L126.617 24.8736L125.879 26.0885H124.352L123.616 24.8774L124.354 23.6624H125.881ZM123.86 24.8736L124.472 23.865H125.758L126.373 24.8774L125.761 25.886H124.475L123.86 24.8736ZM121.789 14.7437L122.524 15.9548L121.786 17.1698H120.316L119.581 15.9586L120.318 14.7437H121.789ZM119.824 15.9548L120.436 14.9462H121.666L122.28 15.9586L121.668 16.9673H120.439L119.824 15.9548ZM119.764 13.6218L120.499 14.833L119.762 16.0479H118.291L117.556 14.8368L118.293 13.6218H119.764ZM117.799 14.833L118.412 13.8243H119.641L120.255 14.8368L119.643 15.8454H118.414L117.799 14.833ZM123.813 15.8562L124.548 17.0673L123.811 18.2823H122.34L121.605 17.0711L122.343 15.8562H123.813ZM121.849 17.0673L122.461 16.0587H123.69L124.305 17.0711L123.693 18.0798H122.463L121.849 17.0673ZM125.895 16.9749L126.63 18.1861L125.893 19.401H124.365L123.63 18.1899L124.367 16.9749H125.895ZM123.874 18.1861L124.486 17.1775H125.772L126.386 18.1899L125.774 19.1985H124.488L123.874 18.1861ZM128.04 18.0906L128.775 19.3017L128.038 20.5167H126.447L125.712 19.3055L126.449 18.0906H128.04ZM125.955 19.3017L126.567 18.2931H127.917L128.532 19.3055L127.92 20.3141H126.57L125.955 19.3017ZM123.813 13.6218L124.548 14.833L123.811 16.0479H122.34L121.605 14.8368L122.343 13.6218H123.813ZM121.849 14.833L122.461 13.8243H123.69L124.305 14.8368L123.693 15.8454H122.463L121.849 14.833ZM121.789 12.5062L122.524 13.7173L121.786 14.9323H120.316L119.581 13.7211L120.318 12.5062H121.789ZM119.824 13.7173L120.436 12.7087H121.666L122.28 13.7211L121.668 14.7298H120.439L119.824 13.7173ZM125.895 14.7437L126.63 15.9548L125.893 17.1698H124.365L123.63 15.9586L124.367 14.7437H125.895ZM123.874 15.9548L124.486 14.9462H125.772L126.386 15.9586L125.774 16.9673H124.488L123.874 15.9548ZM128.04 15.8562L128.775 17.0673L128.038 18.2823H126.447L125.712 17.0711L126.449 15.8562H128.04ZM125.955 17.0673L126.567 16.0587H127.917L128.532 17.0711L127.92 18.0798H126.57L125.955 17.0673ZM130.304 16.9749L131.039 18.1861L130.301 19.401H128.592L127.857 18.1899L128.594 16.9749H130.304ZM128.1 18.1861L128.713 17.1775H130.181L130.795 18.1899L130.183 19.1985H128.715L128.1 18.1861ZM113.69 1.36243L114.425 2.57359L113.688 3.78855H112.217L111.482 2.57738L112.219 1.36243H113.69ZM111.725 2.57359L112.338 1.56496L113.567 1.56496L114.181 2.57738L113.569 3.58601H112.34L111.725 2.57359ZM113.69 3.59368L114.425 4.80484L113.688 6.0198H112.217L111.482 4.80863L112.219 3.59368H113.69ZM111.725 4.80484L112.338 3.79621L113.567 3.79621L114.181 4.80863L113.569 5.81726H112.34L111.725 4.80484ZM109.627 3.57805L110.362 4.78921L109.625 6.00417H108.154L107.419 4.79301L108.157 3.57805H109.627ZM107.663 4.78921L108.275 3.78059L109.504 3.78059L110.119 4.79301L109.506 5.80164H108.277L107.663 4.78921ZM111.652 4.69993L112.387 5.91109L111.649 7.12605H110.179L109.444 5.91488L110.181 4.69993H111.652ZM109.687 5.91109L110.3 4.90246L111.529 4.90246L112.143 5.91488L111.531 6.92351H110.302L109.687 5.91109ZM113.676 5.81555L114.412 7.02671L113.674 8.24167H112.204L111.468 7.03051L112.206 5.81555H113.676ZM111.712 7.02671L112.324 6.01809L113.553 6.01809L114.168 7.03051L113.556 8.03914H112.327L111.712 7.02671ZM117.739 -0.871948L118.474 0.339215L117.737 1.55417H116.266L115.531 0.343007L116.269 -0.871948H117.739ZM115.775 0.339214L116.387 -0.669414H117.616L118.231 0.343008L117.619 1.35164H116.389L115.775 0.339214ZM128.054 20.3249L128.789 21.5361L128.051 22.751H126.46L125.725 21.5399L126.463 20.3249H128.054ZM125.969 21.5361L126.581 20.5275H127.931L128.545 21.5399L127.933 22.5485H126.583L125.969 21.5361ZM130.317 19.2031L131.052 20.4142L130.315 21.6292H128.606L127.87 20.418L128.608 19.2031H130.317ZM128.114 20.4142L128.726 19.4056H130.194L130.809 20.418L130.197 21.4266H128.729L128.114 20.4142ZM117.753 3.5718L118.488 4.78296L117.75 5.99792H116.28L115.545 4.78676L116.282 3.5718H117.753ZM115.788 4.78296L116.401 3.77434L117.63 3.77434L118.244 4.78676L117.632 5.79539H116.403L115.788 4.78296ZM115.728 2.4593L116.463 3.67046L115.726 4.88542H114.255L113.52 3.67426L114.258 2.4593H115.728ZM113.764 3.67046L114.376 2.66184L115.605 2.66184L116.22 3.67426L115.607 4.68289H114.378L113.764 3.67046ZM119.777 4.69055L120.513 5.90171L119.775 7.11667H118.305L117.569 5.90551L118.307 4.69055H119.777ZM117.813 5.90171L118.425 4.89309L119.654 4.89309L120.269 5.90551L119.657 6.91414H118.428L117.813 5.90171ZM121.802 5.80618L122.537 7.01734L121.8 8.2323H120.329L119.594 7.02113L120.332 5.80618H121.802ZM119.838 7.01734L120.45 6.00871L121.679 6.00871L122.294 7.02113L121.681 8.02976H120.452L119.838 7.01734ZM123.827 6.92493L124.562 8.13609L123.824 9.35105H122.354L121.619 8.13988L122.356 6.92493H123.827ZM121.862 8.13609L122.475 7.12746L123.704 7.12746L124.318 8.13988L123.706 9.14851H122.477L121.862 8.13609ZM117.753 5.80618L118.488 7.01734L117.75 8.2323H116.28L115.545 7.02113L116.282 5.80618H117.753ZM115.788 7.01734L116.401 6.00871L117.63 6.00871L118.244 7.02113L117.632 8.02976H116.403L115.788 7.01734ZM115.728 4.69055L116.463 5.90171L115.726 7.11667H114.255L113.52 5.90551L114.258 4.69055H115.728ZM113.764 5.90171L114.376 4.89309L115.605 4.89309L116.22 5.90551L115.607 6.91414H114.378L113.764 5.90171ZM119.777 6.92493L120.513 8.13609L119.775 9.35105H118.305L117.569 8.13988L118.307 6.92493H119.777ZM117.813 8.13609L118.425 7.12746L119.654 7.12746L120.269 8.13988L119.657 9.14851H118.428L117.813 8.13609ZM121.802 8.04055L122.537 9.25172L121.8 10.4667H120.329L119.594 9.25551L120.332 8.04055H121.802ZM119.838 9.25172L120.45 8.24309H121.679L122.294 9.25551L121.681 10.2641H120.452L119.838 9.25172ZM123.827 9.15618L124.562 10.3673L123.824 11.5823H122.354L121.619 10.3711L122.356 9.15618H123.827ZM121.862 10.3673L122.475 9.35871H123.704L124.318 10.3711L123.706 11.3798H122.477L121.862 10.3673ZM117.739 8.02805L118.474 9.23922L117.737 10.4542H116.266L115.531 9.24301L116.269 8.02805H117.739ZM115.775 9.23922L116.387 8.23059H117.616L118.231 9.24301L117.619 10.2516H116.389L115.775 9.23922ZM115.714 6.91243L116.45 8.12359L115.712 9.33855H114.242L113.507 8.12738L114.244 6.91243H115.714ZM113.75 8.12359L114.362 7.11496L115.592 7.11496L116.206 8.12738L115.594 9.13601H114.365L113.75 8.12359ZM119.764 9.14055L120.499 10.3517L119.762 11.5667H118.291L117.556 10.3555L118.293 9.14055H119.764ZM117.799 10.3517L118.412 9.34309H119.641L120.255 10.3555L119.643 11.3641H118.414L117.799 10.3517ZM121.789 10.2624L122.524 11.4736L121.786 12.6885H120.316L119.581 11.4774L120.318 10.2624H121.789ZM119.824 11.4736L120.436 10.465H121.666L122.28 11.4774L121.668 12.486H120.439L119.824 11.4736ZM123.813 11.3781L124.548 12.5892L123.811 13.8042H122.34L121.605 12.593L122.343 11.3781H123.813ZM121.849 12.5892L122.461 11.5806H123.69L124.305 12.593L123.693 13.6016H122.463L121.849 12.5892ZM119.777 2.4593L120.513 3.67046L119.775 4.88542H118.305L117.569 3.67426L118.307 2.4593H119.777ZM117.813 3.67046L118.425 2.66184L119.654 2.66184L120.269 3.67426L119.657 4.68289H118.428L117.813 3.67046ZM117.753 1.33743L118.488 2.54859L117.75 3.76355H116.28L115.545 2.55238L116.282 1.33743H117.753ZM115.788 2.54859L116.401 1.53996L117.63 1.53996L118.244 2.55238L117.632 3.56101H116.403L115.788 2.54859ZM121.802 3.5718L122.537 4.78296L121.8 5.99792H120.329L119.594 4.78676L120.332 3.5718H121.802ZM119.838 4.78296L120.45 3.77434L121.679 3.77434L122.294 4.78676L121.681 5.79539H120.452L119.838 4.78296ZM123.827 4.69055L124.562 5.90171L123.824 7.11667H122.354L121.619 5.90551L122.356 4.69055H123.827ZM121.862 5.90171L122.475 4.89309L123.704 4.89309L124.318 5.90551L123.706 6.91414H122.477L121.862 5.90171ZM125.908 5.80618L126.644 7.01734L125.906 8.2323H124.379L123.643 7.02113L124.381 5.80618H125.908ZM123.887 7.01734L124.499 6.00871L125.785 6.00871L126.4 7.02113L125.788 8.02976H124.502L123.887 7.01734ZM121.802 1.33743L122.537 2.54859L121.8 3.76355H120.329L119.594 2.55238L120.332 1.33743H121.802ZM119.838 2.54859L120.45 1.53996L121.679 1.53996L122.294 2.55238L121.681 3.56101H120.452L119.838 2.54859ZM119.777 0.221802L120.513 1.43296L119.775 2.64792H118.305L117.569 1.43676L118.307 0.221802H119.777ZM117.813 1.43296L118.425 0.424336H119.654L120.269 1.43676L119.657 2.44539H118.428L117.813 1.43296ZM123.827 2.4593L124.562 3.67046L123.824 4.88542H122.354L121.619 3.67426L122.356 2.4593H123.827ZM121.862 3.67046L122.475 2.66184L123.704 2.66184L124.318 3.67426L123.706 4.68289H122.477L121.862 3.67046ZM125.908 3.5718L126.644 4.78296L125.906 5.99792H124.379L123.643 4.78676L124.381 3.5718H125.908ZM123.887 4.78296L124.499 3.77434L125.785 3.77434L126.4 4.78676L125.788 5.79539H124.502L123.887 4.78296ZM128.054 4.69055L128.789 5.90171L128.051 7.11667H126.46L125.725 5.90551L126.463 4.69055H128.054ZM125.969 5.90171L126.581 4.89309L127.931 4.89309L128.545 5.90551L127.933 6.91414H126.583L125.969 5.90171Z" stroke="white" stroke-width="0.333333"/>
</g>
<path d="M99.4064 18.1692C99.4064 18.8917 99.8193 19.5627 100.439 19.924L106.632 23.4853C107.252 23.8466 108.026 23.8466 108.697 23.4853L111.794 21.6788L114.89 19.8724C115.51 19.5111 115.923 18.8401 115.923 18.1176V10.9434C115.923 10.2208 115.51 9.54981 114.89 9.18852L108.697 5.62723C108.077 5.26594 107.303 5.26594 106.632 5.62723L100.439 9.18852C99.8193 9.54981 99.4064 10.2208 99.4064 10.9434V14.5046V18.1692Z" fill="url(#paint1_linear_4040_292828)"/>
<path d="M105.497 23.7407C105.497 24.5665 105.961 25.3407 106.632 25.7536L113.703 29.831C114.426 30.2439 115.303 30.2439 116.026 29.831L119.535 27.8181L123.045 25.8052C123.768 25.3923 124.181 24.6181 124.181 23.7923V15.6375C124.181 14.8117 123.716 14.0375 123.045 13.6246L115.974 9.54717C115.252 9.13426 114.374 9.13426 113.652 9.54717L106.581 13.6246C105.858 14.0375 105.445 14.8117 105.445 15.6375V19.7149L105.497 23.7407Z" fill="url(#paint2_linear_4040_292828)"/>
<path d="M107.665 17.3962H108.8V17.964C109.006 17.4478 109.419 17.293 109.884 17.293C111.071 17.293 111.587 17.8607 111.587 19.6672C111.587 21.4737 111.019 22.0414 109.884 22.0414C109.471 22.0414 109.11 21.9382 108.903 21.5253V23.8478H107.716V17.3962H107.665ZM110.348 19.6672C110.348 18.5317 110.194 18.3253 109.626 18.3253C109.058 18.3253 108.852 18.4801 108.852 19.6672C108.852 20.9059 109.058 21.1124 109.626 21.1124C110.194 21.1124 110.348 20.9059 110.348 19.6672ZM112.31 15.4866H113.497V21.9382H112.31V15.4866ZM115.561 17.3962V20.1833C115.561 20.9059 115.716 21.1124 116.181 21.1124C116.645 21.1124 116.8 20.9059 116.8 20.2349V17.3962H117.987V21.9382H116.852V21.3704C116.697 21.7833 116.335 21.9898 115.768 21.9898C114.735 21.9898 114.323 21.422 114.323 20.3382V17.3962H115.561ZM119.845 20.5962C119.897 21.0608 120.052 21.2156 120.516 21.2156C121.032 21.2156 121.135 21.0608 121.135 20.7511C121.135 20.4414 121.032 20.3382 120.568 20.2866L120 20.1833C119.329 20.0285 118.813 19.6672 118.813 18.7898C118.813 17.8608 119.432 17.3962 120.516 17.3962C121.755 17.3962 122.168 17.8608 122.168 18.9446H121.135C121.084 18.4801 120.981 18.3253 120.516 18.3253C120.052 18.3253 119.897 18.4285 119.897 18.7382C119.897 19.0478 120 19.1511 120.516 19.2543L121.084 19.3575C121.858 19.5124 122.219 19.9253 122.219 20.6995C122.219 21.4737 121.806 22.0414 120.413 22.0414C119.019 22.0414 118.761 21.422 118.71 20.5962H119.845Z" fill="#6B6D70"/>
<path d="M2.58067 18.0156C2.68389 19.7704 3.0968 20.2866 4.64518 20.2866C6.09035 20.2866 6.60647 19.822 6.60647 18.5833C6.60647 17.4995 6.09035 17.1382 4.6968 16.7769L3.66454 16.5188C1.34196 15.9511 0.154861 15.022 0.154861 12.3898C0.154861 9.91236 1.34196 8.41559 4.59357 8.41559C8.10325 8.41559 9.03228 9.80914 9.13551 12.9059H6.60647C6.50325 11.1511 6.09035 10.7898 4.64518 10.7898C3.35486 10.7898 2.78712 11.2027 2.78712 12.3382C2.78712 13.5253 3.30325 13.8349 4.80002 14.1962L5.83228 14.4543C8.15486 15.022 9.29034 16.1059 9.29034 18.4285C9.29034 20.9059 8.05164 22.2995 4.64518 22.2995C1.29035 22.2995 0.206474 21.1124 0.0516357 17.9124H2.58067V18.0156Z" fill="#6B6D70"/>
<path d="M18.4774 17.3962C18.4774 14.0414 17.7032 12.4414 14.6581 12.4414C11.7678 12.4414 10.6323 13.8349 10.6323 17.3962C10.6323 20.9575 11.7162 22.2995 14.7613 22.2995C17.2387 22.2995 18.271 21.1124 18.4258 19.2027H16.2065C16.1032 20.1833 15.6903 20.4414 14.7613 20.4414C13.5742 20.4414 13.2129 20.0801 13.1613 17.8607H18.4774V17.3962ZM13.1613 16.2607C13.3162 14.764 13.7807 14.5059 14.6581 14.5059C15.5871 14.5059 16 14.8156 16.0516 16.2607H13.1613Z" fill="#6B6D70"/>
<path d="M19.9226 15.8995C19.9226 13.5769 20.8516 12.5962 23.2258 12.5962H24.8258V14.6607H23.5871C22.7613 14.6607 22.4516 14.9704 22.4516 15.7962V22.1446H19.9742V15.8995H19.9226Z" fill="#6B6D70"/>
<path d="M25.7033 12.6003H28.3355L30.2968 19.0003L32.2581 12.6003H34.4775L31.2775 22.1487H28.9549L25.7033 12.6003Z" fill="#6B6D70"/>
<path d="M37.9871 8.6793H35.5097V10.9503H37.9871V8.6793Z" fill="#6B6D70"/>
<path d="M37.9872 12.6035H35.5097V22.1519H37.9872V12.6035Z" fill="#6B6D70"/>
<path d="M39.5872 17.3519C39.5872 13.6874 40.671 12.4487 43.613 12.4487C46.4001 12.4487 47.1743 13.739 47.3291 16.4228H45.0065C44.9033 14.9261 44.6452 14.5648 43.613 14.5648C42.4259 14.5648 42.1678 14.9261 42.1678 17.4551C42.1678 19.9841 42.4259 20.3454 43.613 20.3454C44.6452 20.3454 44.9549 19.8809 45.0065 18.3325H47.3291C47.2259 21.068 46.142 22.2551 43.613 22.2551C40.5162 22.3067 39.5872 20.9648 39.5872 17.3519Z" fill="#6B6D70"/>
<path d="M56.3097 17.4035C56.3097 14.0487 55.5355 12.4487 52.4904 12.4487C49.6001 12.4487 48.4646 13.8422 48.4646 17.4035C48.4646 20.9648 49.5485 22.3067 52.5936 22.3067C55.071 22.3067 56.1033 21.1196 56.2581 19.2099H54.0388C53.9355 20.1906 53.5226 20.4487 52.5936 20.4487C51.4065 20.4487 51.0452 20.0874 50.9936 17.868H56.3097V17.4035ZM50.9936 16.268C51.1485 14.7712 51.613 14.5132 52.4904 14.5132C53.4194 14.5132 53.8323 14.8228 53.9355 16.268H50.9936Z" fill="#6B6D70"/>
<path d="M61.471 8.67688H64.2065L68.6452 17.3478V8.67688H71.071V22.1478H68.4903L63.8968 13.1672V22.1478H61.471V8.67688ZM73.4452 8.67688H81.4452V10.9995H76.0258V14.2511H80.9807V16.4704H76.0258V20.0317H81.4452V22.0962H73.4452V8.67688ZM86.2452 15.3349L82.6839 8.67688H85.5226L87.8968 13.1672L90.271 8.67688H92.9033L89.2904 15.3349L93.0065 22.1478H90.1678L87.6904 17.4511L85.2129 22.1478H82.6323L86.2452 15.3349ZM93.8323 8.67688H103.277V10.9995H99.871V22.1478H97.2904V10.9995H93.8323V8.67688Z" fill="#6B6D70"/>
<defs>
<linearGradient id="paint0_linear_4040_292828" x1="105.429" y1="22.4886" x2="128.707" y2="6.18967" gradientUnits="userSpaceOnUse">
<stop offset="2.64094e-07" stop-color="#EEEFEF"/>
<stop offset="1" stop-color="#B9B9BA"/>
</linearGradient>
<linearGradient id="paint1_linear_4040_292828" x1="107.674" y1="23.7912" x2="107.674" y2="5.3766" gradientUnits="userSpaceOnUse">
<stop stop-color="#FCFBFC"/>
<stop offset="1" stop-color="#EDEEEF"/>
</linearGradient>
<linearGradient id="paint2_linear_4040_292828" x1="111.071" y1="20.5816" x2="130.035" y2="16.0207" gradientUnits="userSpaceOnUse">
<stop stop-color="#FCFBFC"/>
<stop offset="1" stop-color="#EDEEEF"/>
</linearGradient>
</defs>
</svg>
