<svg width="326" height="80" viewBox="0 0 326 80" fill="none" xmlns="http://www.w3.org/2000/svg">
<g clip-path="url(#clip0_4040_292764)">
<path d="M261.194 49.6704C261.194 52.5091 262.742 55.0897 265.194 56.5091L289.194 70.3155C291.645 71.7349 294.613 71.7349 297.064 70.3155L309.064 63.3478L321.064 56.38C323.516 54.9607 325.065 52.38 325.065 49.5413V21.7994C325.065 18.9607 323.516 16.38 321.064 14.9607L297.064 1.28327C294.613 -0.136089 291.645 -0.136089 289.194 1.28327L265.194 15.0897C262.742 16.5091 261.194 19.0897 261.194 21.9284V35.7349V49.6704Z" fill="url(#paint0_linear_4040_292764)"/>
<mask id="mask0_4040_292764" style="mask-type:alpha" maskUnits="userSpaceOnUse" x="261" y="0" width="65" height="72">
<path d="M261.194 49.6782C261.194 52.5169 262.742 55.0975 265.194 56.5169L289.194 70.3233C291.645 71.7427 294.613 71.7427 297.064 70.3233L309.064 63.3556L321.064 56.3879C323.516 54.9685 325.065 52.3879 325.065 49.5491V21.8072C325.065 18.9685 323.516 16.3879 321.064 14.9685L297.064 1.29108C294.613 -0.128276 291.645 -0.128276 289.194 1.29108L265.194 15.0975C262.742 16.5169 261.194 19.0975 261.194 21.9362V35.7427V49.6782Z" fill="#BB302C"/>
</mask>
<g mask="url(#mask0_4040_292764)">
<path fill-rule="evenodd" clip-rule="evenodd" d="M320.554 22.9141L322.392 25.942L320.548 28.9794H316.57L314.732 25.9515L316.576 22.9141H320.554ZM316.872 23.4204L315.341 25.942L316.878 28.4731H320.252L321.783 25.9515L320.246 23.4204H316.872Z" fill="white"/>
<path fill-rule="evenodd" clip-rule="evenodd" d="M315.19 20.1328L317.028 23.1608L315.185 26.1981H311.366L309.528 23.1702L311.372 20.1328H315.19ZM311.668 20.6392L310.137 23.1608L311.674 25.6918H314.889L316.419 23.1702L314.883 20.6392H311.668Z" fill="white"/>
<path fill-rule="evenodd" clip-rule="evenodd" d="M326.213 25.711L328.051 28.7389L326.207 31.7763H321.934L320.095 28.7484L321.939 25.711H326.213ZM322.235 26.2173L320.704 28.7389L322.241 31.2699H325.911L327.442 28.7484L325.905 26.2173H322.235Z" fill="white"/>
<path fill-rule="evenodd" clip-rule="evenodd" d="M320.554 28.5L322.392 31.5279L320.548 34.5653H316.57L314.732 31.5374L316.576 28.5H320.554ZM316.872 29.0064L315.341 31.5279L316.878 34.059H320.252L321.783 31.5374L320.246 29.0064H316.872Z" fill="white"/>
<path fill-rule="evenodd" clip-rule="evenodd" d="M315.19 25.711L317.028 28.7389L315.185 31.7763H311.366L309.528 28.7484L311.372 25.711H315.19ZM311.668 26.2173L310.137 28.7389L311.674 31.2699H314.889L316.419 28.7484L314.883 26.2173H311.668Z" fill="white"/>
<path fill-rule="evenodd" clip-rule="evenodd" d="M326.213 31.2969L328.051 34.3248L326.207 37.3622H321.934L320.095 34.3343L321.939 31.2969H326.213ZM322.235 31.8032L320.704 34.3248L322.241 36.8559H325.911L327.442 34.3343L325.905 31.8032H322.235Z" fill="white"/>
<path fill-rule="evenodd" clip-rule="evenodd" d="M320.52 34.0547L322.358 37.0826L320.514 40.12H316.536L314.698 37.0921L316.542 34.0547H320.52ZM316.838 34.5611L315.307 37.0826L316.844 39.6137H320.218L321.749 37.0921L320.213 34.5611H316.838Z" fill="white"/>
<path fill-rule="evenodd" clip-rule="evenodd" d="M315.156 31.2657L316.995 34.2936L315.151 37.331H311.332L309.494 34.303L311.338 31.2657H315.156ZM311.634 31.772L310.103 34.2936L311.64 36.8246H314.855L316.386 34.303L314.849 31.772H311.634Z" fill="white"/>
<path fill-rule="evenodd" clip-rule="evenodd" d="M326.179 36.836L328.017 39.8639L326.173 42.9013H321.9L320.062 39.8734L321.905 36.836H326.179ZM322.201 37.3423L320.671 39.8639L322.207 42.3949H325.877L327.408 39.8734L325.871 37.3423H322.201Z" fill="white"/>
<path fill-rule="evenodd" clip-rule="evenodd" d="M326.213 20.1328L328.051 23.1608L326.207 26.1981H321.934L320.095 23.1702L321.939 20.1328H326.213ZM322.235 20.6392L320.704 23.1608L322.241 25.6918H325.911L327.442 23.1702L325.905 20.6392H322.235Z" fill="white"/>
<path fill-rule="evenodd" clip-rule="evenodd" d="M320.554 17.3282L322.392 20.3561L320.548 23.3935H316.57L314.732 20.3655L316.576 17.3282H320.554ZM316.872 17.8345L315.341 20.3561L316.878 22.8871H320.252L321.783 20.3655L320.246 17.8345H316.872Z" fill="white"/>
<path fill-rule="evenodd" clip-rule="evenodd" d="M326.213 14.5391L328.051 17.567L326.207 20.6044H321.934L320.095 17.5765L321.939 14.5391H326.213ZM322.235 15.0454L320.704 17.567L322.241 20.0981H325.911L327.442 17.5765L325.905 15.0454H322.235Z" fill="white"/>
<path fill-rule="evenodd" clip-rule="evenodd" d="M299.829 39.6406L301.667 42.6685L299.823 45.7059H296.147L294.309 42.678L296.153 39.6406H299.829ZM296.449 40.147L294.918 42.6685L296.455 45.1996H299.527L301.058 42.678L299.522 40.147H296.449Z" fill="white"/>
<path fill-rule="evenodd" clip-rule="evenodd" d="M294.767 36.8594L296.605 39.8873L294.762 42.9247H291.086L289.247 39.8968L291.091 36.8594H294.767ZM291.387 37.3657L289.856 39.8873L291.393 42.4183H294.466L295.996 39.8968L294.46 37.3657H291.387Z" fill="white"/>
<path fill-rule="evenodd" clip-rule="evenodd" d="M304.891 42.4375L306.729 45.4654L304.885 48.5028H301.209L299.371 45.4749L301.215 42.4375H304.891ZM301.511 42.9438L299.98 45.4654L301.516 47.9965H304.589L306.12 45.4749L304.583 42.9438H301.511Z" fill="white"/>
<path fill-rule="evenodd" clip-rule="evenodd" d="M309.952 45.2266L311.791 48.2545L309.947 51.2919H306.271L304.433 48.264L306.276 45.2266H309.952ZM306.572 45.7329L305.042 48.2545L306.578 50.7855H309.651L311.182 48.264L309.645 45.7329H306.572Z" fill="white"/>
<path fill-rule="evenodd" clip-rule="evenodd" d="M315.156 48.0234L316.995 51.0513L315.151 54.0887H311.332L309.494 51.0608L311.338 48.0234H315.156ZM311.634 48.5298L310.103 51.0513L311.64 53.5824H314.855L316.386 51.0608L314.849 48.5298H311.634Z" fill="white"/>
<path fill-rule="evenodd" clip-rule="evenodd" d="M299.829 45.2266L301.667 48.2545L299.823 51.2919H296.147L294.309 48.264L296.153 45.2266H299.829ZM296.449 45.7329L294.918 48.2545L296.455 50.7855H299.527L301.058 48.264L299.522 45.7329H296.449Z" fill="white"/>
<path fill-rule="evenodd" clip-rule="evenodd" d="M294.767 42.4375L296.605 45.4654L294.762 48.5028H291.086L289.247 45.4749L291.091 42.4375H294.767ZM291.387 42.9438L289.856 45.4654L291.393 47.9965H294.466L295.996 45.4749L294.46 42.9438H291.387Z" fill="white"/>
<path fill-rule="evenodd" clip-rule="evenodd" d="M304.891 48.0234L306.729 51.0513L304.885 54.0887H301.209L299.371 51.0608L301.215 48.0234H304.891ZM301.511 48.5298L299.98 51.0513L301.516 53.5824H304.589L306.12 51.0608L304.583 48.5298H301.511Z" fill="white"/>
<path fill-rule="evenodd" clip-rule="evenodd" d="M309.952 50.8125L311.791 53.8404L309.947 56.8778H306.271L304.433 53.8499L306.276 50.8125H309.952ZM306.572 51.3188L305.042 53.8404L306.578 56.3715H309.651L311.182 53.8499L309.645 51.3188H306.572Z" fill="white"/>
<path fill-rule="evenodd" clip-rule="evenodd" d="M315.156 53.6016L316.995 56.6295L315.151 59.6669H311.332L309.494 56.639L311.338 53.6016H315.156ZM311.634 54.1079L310.103 56.6295L311.64 59.1605H314.855L316.386 56.639L314.849 54.1079H311.634Z" fill="white"/>
<path fill-rule="evenodd" clip-rule="evenodd" d="M299.795 50.7812L301.633 53.8092L299.79 56.8465H296.114L294.275 53.8186L296.119 50.7812H299.795ZM296.415 51.2876L294.884 53.8092L296.421 56.3402H299.494L301.024 53.8186L299.488 51.2876H296.415Z" fill="white"/>
<path fill-rule="evenodd" clip-rule="evenodd" d="M294.734 47.9922L296.572 51.0201L294.728 54.0575H291.052L289.214 51.0296L291.058 47.9922H294.734ZM291.353 48.4985L289.823 51.0201L291.359 53.5511H294.432L295.963 51.0296L294.426 48.4985H291.353Z" fill="white"/>
<path fill-rule="evenodd" clip-rule="evenodd" d="M304.857 53.5625L306.695 56.5904L304.851 59.6278H301.175L299.337 56.5999L301.181 53.5625H304.857ZM301.477 54.0688L299.946 56.5904L301.483 59.1215H304.555L306.086 56.5999L304.55 54.0688H301.477Z" fill="white"/>
<path fill-rule="evenodd" clip-rule="evenodd" d="M309.919 56.3672L311.757 59.3951L309.913 62.4325H306.237L304.399 59.4046L306.243 56.3672H309.919ZM306.538 56.8735L305.008 59.3951L306.544 61.9261H309.617L311.148 59.4046L309.611 56.8735H306.538Z" fill="white"/>
<path fill-rule="evenodd" clip-rule="evenodd" d="M315.123 59.1562L316.961 62.1842L315.117 65.2215H311.299L309.461 62.1936L311.304 59.1562H315.123ZM311.6 59.6626L310.07 62.1842L311.606 64.7152H314.821L316.352 62.1936L314.815 59.6626H311.6Z" fill="white"/>
<path fill-rule="evenodd" clip-rule="evenodd" d="M304.891 36.8594L306.729 39.8873L304.885 42.9247H301.209L299.371 39.8968L301.215 36.8594H304.891ZM301.511 37.3657L299.98 39.8873L301.516 42.4183H304.589L306.12 39.8968L304.583 37.3657H301.511Z" fill="white"/>
<path fill-rule="evenodd" clip-rule="evenodd" d="M299.829 34.0547L301.667 37.0826L299.823 40.12H296.147L294.309 37.0921L296.153 34.0547H299.829ZM296.449 34.561L294.918 37.0826L296.455 39.6136H299.527L301.058 37.0921L299.522 34.561H296.449Z" fill="white"/>
<path fill-rule="evenodd" clip-rule="evenodd" d="M309.952 39.6406L311.791 42.6685L309.947 45.7059H306.271L304.433 42.678L306.276 39.6406H309.952ZM306.572 40.147L305.042 42.6685L306.578 45.1996H309.651L311.182 42.678L309.645 40.147H306.572Z" fill="white"/>
<path fill-rule="evenodd" clip-rule="evenodd" d="M315.156 42.4375L316.995 45.4654L315.151 48.5028H311.332L309.494 45.4749L311.338 42.4375H315.156ZM311.634 42.9438L310.103 45.4654L311.64 47.9965H314.855L316.386 45.4749L314.849 42.9438H311.634Z" fill="white"/>
<path fill-rule="evenodd" clip-rule="evenodd" d="M320.52 45.2266L322.358 48.2545L320.514 51.2919H316.536L314.698 48.264L316.542 45.2266H320.52ZM316.838 45.7329L315.307 48.2545L316.844 50.7855H320.218L321.749 48.264L320.213 45.7329H316.838Z" fill="white"/>
<path fill-rule="evenodd" clip-rule="evenodd" d="M309.952 34.0547L311.791 37.0826L309.947 40.12H306.271L304.433 37.0921L306.276 34.0547H309.952ZM306.572 34.561L305.042 37.0826L306.578 39.6136H309.651L311.182 37.0921L309.645 34.561H306.572Z" fill="white"/>
<path fill-rule="evenodd" clip-rule="evenodd" d="M304.891 31.2656L306.729 34.2935L304.885 37.3309H301.209L299.371 34.303L301.215 31.2656H304.891ZM301.511 31.772L299.98 34.2935L301.516 36.8246H304.589L306.12 34.303L304.583 31.772H301.511Z" fill="white"/>
<path fill-rule="evenodd" clip-rule="evenodd" d="M315.156 36.8594L316.995 39.8873L315.151 42.9247H311.332L309.494 39.8968L311.338 36.8594H315.156ZM311.634 37.3657L310.103 39.8873L311.64 42.4183H314.855L316.386 39.8968L314.849 37.3657H311.634Z" fill="white"/>
<path fill-rule="evenodd" clip-rule="evenodd" d="M320.52 39.6406L322.358 42.6685L320.514 45.7059H316.536L314.698 42.678L316.542 39.6406H320.52ZM316.838 40.147L315.307 42.6685L316.844 45.1996H320.218L321.749 42.678L320.213 40.147H316.838Z" fill="white"/>
<path fill-rule="evenodd" clip-rule="evenodd" d="M326.179 42.4375L328.017 45.4654L326.173 48.5028H321.9L320.062 45.4749L321.905 42.4375H326.179ZM322.201 42.9438L320.671 45.4654L322.207 47.9965H325.877L327.408 45.4749L325.871 42.9438H322.201Z" fill="white"/>
<path fill-rule="evenodd" clip-rule="evenodd" d="M284.644 3.40625L286.482 6.43416L284.638 9.47155H280.962L279.124 6.44364L280.968 3.40625H284.644ZM281.264 3.91258L279.733 6.43416L281.27 8.96521H284.342L285.873 6.44364L284.337 3.91259L281.264 3.91258Z" fill="white"/>
<path fill-rule="evenodd" clip-rule="evenodd" d="M284.644 8.98438L286.482 12.0123L284.638 15.0497H280.962L279.124 12.0218L280.968 8.98438H284.644ZM281.264 9.49071L279.733 12.0123L281.27 14.5433H284.342L285.873 12.0218L284.337 9.49071L281.264 9.49071Z" fill="white"/>
<path fill-rule="evenodd" clip-rule="evenodd" d="M274.487 8.94531L276.325 11.9732L274.481 15.0106H270.805L268.967 11.9827L270.811 8.94531H274.487ZM271.107 9.45165L269.576 11.9732L271.112 14.5043H274.185L275.716 11.9827L274.179 9.45165L271.107 9.45165Z" fill="white"/>
<path fill-rule="evenodd" clip-rule="evenodd" d="M279.549 11.75L281.387 14.7779L279.543 17.8153H275.867L274.029 14.7874L275.872 11.75H279.549ZM276.168 12.2563L274.638 14.7779L276.174 17.309H279.247L280.778 14.7874L279.241 12.2563L276.168 12.2563Z" fill="white"/>
<path fill-rule="evenodd" clip-rule="evenodd" d="M284.61 14.5391L286.448 17.567L284.604 20.6044H280.928L279.09 17.5765L280.934 14.5391H284.61ZM281.23 15.0454L279.699 17.567L281.236 20.098H284.309L285.839 17.5765L284.303 15.0454L281.23 15.0454Z" fill="white"/>
<path fill-rule="evenodd" clip-rule="evenodd" d="M294.767 -2.17969L296.605 0.84822L294.762 3.88561H291.086L289.248 0.857701L291.091 -2.17969H294.767ZM291.387 -1.67335L289.856 0.848219L291.393 3.37927H294.466L295.996 0.857702L294.46 -1.67335H291.387Z" fill="white"/>
<path fill-rule="evenodd" clip-rule="evenodd" d="M320.554 50.8125L322.392 53.8404L320.548 56.8778H316.57L314.732 53.8499L316.576 50.8125H320.554ZM316.872 51.3188L315.341 53.8404L316.877 56.3715H320.252L321.783 53.8499L320.246 51.3188H316.872Z" fill="white"/>
<path fill-rule="evenodd" clip-rule="evenodd" d="M326.213 48.0078L328.051 51.0357L326.207 54.0731H321.933L320.095 51.0452L321.939 48.0078H326.213ZM322.235 48.5141L320.704 51.0357L322.241 53.5668H325.911L327.442 51.0452L325.905 48.5141H322.235Z" fill="white"/>
<path fill-rule="evenodd" clip-rule="evenodd" d="M294.801 8.92969L296.639 11.9576L294.795 14.995H291.119L289.281 11.9671L291.125 8.92969H294.801ZM291.421 9.43602L289.89 11.9576L291.427 14.4886H294.5L296.03 11.9671L294.494 9.43602L291.421 9.43602Z" fill="white"/>
<path fill-rule="evenodd" clip-rule="evenodd" d="M289.739 6.14844L291.577 9.17634L289.734 12.2137H286.058L284.22 9.18583L286.063 6.14844H289.739ZM286.359 6.65477L284.829 9.17634L286.365 11.7074H289.438L290.969 9.18583L289.432 6.65477L286.359 6.65477Z" fill="white"/>
<path fill-rule="evenodd" clip-rule="evenodd" d="M299.863 11.7266L301.701 14.7545L299.857 17.7919H296.181L294.343 14.764L296.187 11.7266H299.863ZM296.483 12.2329L294.952 14.7545L296.488 17.2855H299.561L301.092 14.764L299.556 12.2329L296.483 12.2329Z" fill="white"/>
<path fill-rule="evenodd" clip-rule="evenodd" d="M304.925 14.5156L306.763 17.5435L304.919 20.5809H301.243L299.405 17.553L301.249 14.5156H304.925ZM301.544 15.022L300.014 17.5435L301.55 20.0746H304.623L306.154 17.553L304.617 15.022L301.544 15.022Z" fill="white"/>
<path fill-rule="evenodd" clip-rule="evenodd" d="M309.986 17.3125L311.824 20.3404L309.981 23.3778H306.304L304.466 20.3499L306.31 17.3125H309.986ZM306.606 17.8188L305.075 20.3404L306.612 22.8715H309.685L311.215 20.3499L309.679 17.8188L306.606 17.8188Z" fill="white"/>
<path fill-rule="evenodd" clip-rule="evenodd" d="M294.801 14.5156L296.639 17.5435L294.795 20.5809H291.119L289.281 17.553L291.125 14.5156H294.801ZM291.421 15.022L289.89 17.5435L291.427 20.0746H294.5L296.03 17.553L294.494 15.022L291.421 15.022Z" fill="white"/>
<path fill-rule="evenodd" clip-rule="evenodd" d="M289.739 11.7266L291.577 14.7545L289.734 17.7919H286.058L284.22 14.764L286.063 11.7266H289.739ZM286.359 12.2329L284.829 14.7545L286.365 17.2855H289.438L290.969 14.764L289.432 12.2329L286.359 12.2329Z" fill="white"/>
<path fill-rule="evenodd" clip-rule="evenodd" d="M299.863 17.3125L301.701 20.3404L299.857 23.3778H296.181L294.343 20.3499L296.187 17.3125H299.863ZM296.483 17.8188L294.952 20.3404L296.488 22.8715H299.561L301.092 20.3499L299.556 17.8188L296.483 17.8188Z" fill="white"/>
<path fill-rule="evenodd" clip-rule="evenodd" d="M304.925 20.1016L306.763 23.1295L304.919 26.1669H301.243L299.405 23.139L301.249 20.1016H304.925ZM301.544 20.6079L300.014 23.1295L301.55 25.6605H304.623L306.154 23.139L304.617 20.6079H301.544Z" fill="white"/>
<path fill-rule="evenodd" clip-rule="evenodd" d="M309.986 22.8906L311.824 25.9185L309.981 28.9559H306.304L304.466 25.928L306.31 22.8906H309.986ZM306.606 23.397L305.075 25.9185L306.612 28.4496H309.685L311.215 25.928L309.679 23.397H306.606Z" fill="white"/>
<path fill-rule="evenodd" clip-rule="evenodd" d="M294.767 20.0703L296.605 23.0982L294.762 26.1356H291.086L289.248 23.1077L291.091 20.0703H294.767ZM291.387 20.5766L289.856 23.0982L291.393 25.6293H294.466L295.996 23.1077L294.46 20.5766H291.387Z" fill="white"/>
<path fill-rule="evenodd" clip-rule="evenodd" d="M289.706 17.2812L291.544 20.3092L289.7 23.3465H286.024L284.186 20.3186L286.03 17.2812H289.706ZM286.325 17.7876L284.795 20.3092L286.331 22.8402H289.404L290.935 20.3186L289.398 17.7876L286.325 17.7876Z" fill="white"/>
<path fill-rule="evenodd" clip-rule="evenodd" d="M299.829 22.8516L301.667 25.8795L299.823 28.9169H296.147L294.309 25.889L296.153 22.8516H299.829ZM296.449 23.3579L294.918 25.8795L296.455 28.4105H299.527L301.058 25.889L299.522 23.3579H296.449Z" fill="white"/>
<path fill-rule="evenodd" clip-rule="evenodd" d="M304.891 25.6562L306.729 28.6842L304.885 31.7215H301.209L299.371 28.6936L301.215 25.6562H304.891ZM301.511 26.1626L299.98 28.6842L301.516 31.2152H304.589L306.12 28.6936L304.583 26.1626H301.511Z" fill="white"/>
<path fill-rule="evenodd" clip-rule="evenodd" d="M309.953 28.4453L311.791 31.4732L309.947 34.5106H306.271L304.433 31.4827L306.276 28.4453H309.953ZM306.572 28.9516L305.042 31.4732L306.578 34.0043H309.651L311.182 31.4827L309.645 28.9516H306.572Z" fill="white"/>
<path fill-rule="evenodd" clip-rule="evenodd" d="M299.863 6.14844L301.701 9.17634L299.857 12.2137H296.181L294.343 9.18583L296.187 6.14844H299.863ZM296.483 6.65477L294.952 9.17634L296.488 11.7074H299.561L301.092 9.18583L299.556 6.65477L296.483 6.65477Z" fill="white"/>
<path fill-rule="evenodd" clip-rule="evenodd" d="M294.801 3.34375L296.639 6.37166L294.795 9.40905H291.119L289.281 6.38114L291.125 3.34375H294.801ZM291.421 3.85008L289.89 6.37166L291.427 8.90271H294.5L296.03 6.38114L294.494 3.85009L291.421 3.85008Z" fill="white"/>
<path fill-rule="evenodd" clip-rule="evenodd" d="M304.925 8.92969L306.763 11.9576L304.919 14.995H301.243L299.405 11.9671L301.249 8.92969H304.925ZM301.544 9.43602L300.014 11.9576L301.55 14.4886H304.623L306.154 11.9671L304.617 9.43602L301.544 9.43602Z" fill="white"/>
<path fill-rule="evenodd" clip-rule="evenodd" d="M309.986 11.7266L311.824 14.7545L309.981 17.7919H306.304L304.466 14.764L306.31 11.7266H309.986ZM306.606 12.2329L305.075 14.7545L306.612 17.2855H309.685L311.215 14.764L309.679 12.2329L306.606 12.2329Z" fill="white"/>
<path fill-rule="evenodd" clip-rule="evenodd" d="M315.19 14.5156L317.028 17.5435L315.185 20.5809H311.366L309.528 17.553L311.372 14.5156H315.19ZM311.668 15.022L310.137 17.5435L311.674 20.0746H314.889L316.419 17.553L314.883 15.022L311.668 15.022Z" fill="white"/>
<path fill-rule="evenodd" clip-rule="evenodd" d="M304.925 3.34375L306.763 6.37166L304.919 9.40905H301.243L299.405 6.38114L301.249 3.34375H304.925ZM301.544 3.85008L300.014 6.37166L301.55 8.90271H304.623L306.154 6.38114L304.617 3.85009L301.544 3.85008Z" fill="white"/>
<path fill-rule="evenodd" clip-rule="evenodd" d="M299.863 0.554688L301.701 3.58259L299.857 6.61998H296.181L294.343 3.59208L296.187 0.554688H299.863ZM296.483 1.06102L294.952 3.58259L296.488 6.11365H299.561L301.092 3.59208L299.556 1.06102H296.483Z" fill="white"/>
<path fill-rule="evenodd" clip-rule="evenodd" d="M309.986 6.14844L311.824 9.17634L309.981 12.2137H306.304L304.466 9.18583L306.31 6.14844H309.986ZM306.606 6.65477L305.075 9.17634L306.612 11.7074H309.685L311.215 9.18583L309.679 6.65477L306.606 6.65477Z" fill="white"/>
<path fill-rule="evenodd" clip-rule="evenodd" d="M315.19 8.92969L317.028 11.9576L315.185 14.995H311.366L309.528 11.9671L311.372 8.92969H315.19ZM311.668 9.43602L310.137 11.9576L311.674 14.4886H314.889L316.419 11.9671L314.883 9.43602L311.668 9.43602Z" fill="white"/>
<path fill-rule="evenodd" clip-rule="evenodd" d="M320.554 11.7266L322.392 14.7545L320.548 17.7919H316.57L314.732 14.764L316.576 11.7266H320.554ZM316.872 12.2329L315.341 14.7545L316.878 17.2855H320.252L321.783 14.764L320.246 12.2329L316.872 12.2329Z" fill="white"/>
<path d="M327.593 34.5653L325.754 31.5374L327.598 28.5M327.894 29.0064L326.363 31.5279L327.9 34.059M327.593 40.1513L325.754 37.1234L327.598 34.086M327.894 34.5923L326.363 37.1139L327.9 39.6449M327.559 45.706L325.721 42.678L327.564 39.6407M327.86 40.147L326.33 42.6686L327.866 45.1996M327.593 28.9794L325.754 25.9515L327.598 22.9141M327.894 23.4204L326.363 25.942L327.9 28.4731M327.593 23.3935L325.754 20.3655L327.598 17.3282M327.894 17.8345L326.363 20.3561L327.9 22.8871M281.42 3.63728L279.577 6.67467M279.281 6.16833L280.811 3.64676M274.515 9.47155H270.839M271.146 8.96521H274.219M279.582 6.19531L281.42 9.22322L279.577 12.2606H275.901L274.062 9.2327M274.671 9.22322L276.208 11.7543H279.281L280.811 9.2327L279.275 6.70165M271.263 9.19197L269.419 12.2294M269.124 11.723L270.654 9.20145M284.638 3.88561H280.962M281.27 3.37927H284.342M289.706 0.609375L291.544 3.63728L289.7 6.67467H286.024L284.186 3.64676M284.795 3.63728L286.331 6.16833H289.404L290.935 3.64676L289.398 1.11571M291.544 -1.94866L289.7 1.08873M289.404 0.582398L290.935 -1.93917M326.213 53.5938H321.939L320.095 56.6311L321.933 59.659M322.241 59.1527L320.704 56.6217L322.235 54.1001H325.905M322.392 59.4185L320.554 56.3906H316.576L314.732 59.428L316.57 62.4559M316.877 61.9496L315.341 59.4185L316.872 56.897H320.246L321.783 59.428M314.698 64.9827L316.542 61.9453M315.307 64.9732L316.838 62.4516M325.754 53.8499L327.598 50.8125M326.363 53.8404L327.894 51.3188M327.592 51.284L325.754 48.2561L327.598 45.2188M327.894 45.7251L326.363 48.2467L327.9 50.7777M320.554 22.9141L322.392 25.942L320.548 28.9794H316.57L314.732 25.9515L316.576 22.9141H320.554ZM315.341 25.942L316.872 23.4204H320.246L321.783 25.9515L320.252 28.4731H316.878L315.341 25.942ZM315.19 20.1328L317.028 23.1608L315.185 26.1981H311.366L309.528 23.1702L311.372 20.1328H315.19ZM310.137 23.1608L311.668 20.6392H314.883L316.419 23.1702L314.889 25.6918H311.674L310.137 23.1608ZM326.213 25.711L328.051 28.7389L326.207 31.7763H321.934L320.095 28.7484L321.939 25.711H326.213ZM320.704 28.7389L322.235 26.2173H325.905L327.442 28.7484L325.911 31.2699H322.241L320.704 28.7389ZM320.554 28.5L322.392 31.5279L320.548 34.5653H316.57L314.732 31.5374L316.576 28.5H320.554ZM315.341 31.5279L316.872 29.0064H320.246L321.783 31.5374L320.252 34.059H316.878L315.341 31.5279ZM315.19 25.711L317.028 28.7389L315.185 31.7763H311.366L309.528 28.7484L311.372 25.711H315.19ZM310.137 28.7389L311.668 26.2173H314.883L316.419 28.7484L314.889 31.2699H311.674L310.137 28.7389ZM326.213 31.2969L328.051 34.3248L326.207 37.3622H321.934L320.095 34.3343L321.939 31.2969H326.213ZM320.704 34.3248L322.235 31.8032H325.905L327.442 34.3343L325.911 36.8559H322.241L320.704 34.3248ZM320.52 34.0547L322.358 37.0826L320.514 40.12H316.536L314.698 37.0921L316.542 34.0547H320.52ZM315.307 37.0826L316.838 34.5611H320.213L321.749 37.0921L320.218 39.6137H316.844L315.307 37.0826ZM315.156 31.2657L316.995 34.2936L315.151 37.331H311.332L309.494 34.303L311.338 31.2657H315.156ZM310.103 34.2936L311.634 31.772H314.849L316.386 34.303L314.855 36.8246H311.64L310.103 34.2936ZM326.179 36.836L328.017 39.8639L326.173 42.9013H321.9L320.062 39.8734L321.905 36.836H326.179ZM320.671 39.8639L322.201 37.3423H325.871L327.408 39.8734L325.877 42.3949H322.207L320.671 39.8639ZM326.213 20.1328L328.051 23.1608L326.207 26.1981H321.934L320.095 23.1702L321.939 20.1328H326.213ZM320.704 23.1608L322.235 20.6392H325.905L327.442 23.1702L325.911 25.6918H322.241L320.704 23.1608ZM320.554 17.3282L322.392 20.3561L320.548 23.3935H316.57L314.732 20.3655L316.576 17.3282H320.554ZM315.341 20.3561L316.872 17.8345H320.246L321.783 20.3655L320.252 22.8871H316.878L315.341 20.3561ZM326.213 14.5391L328.051 17.567L326.207 20.6044H321.934L320.095 17.5765L321.939 14.5391H326.213ZM320.704 17.567L322.235 15.0454H325.905L327.442 17.5765L325.911 20.0981H322.241L320.704 17.567ZM299.829 39.6406L301.667 42.6685L299.823 45.7059H296.147L294.309 42.678L296.153 39.6406H299.829ZM294.918 42.6685L296.449 40.147H299.522L301.058 42.678L299.527 45.1996H296.455L294.918 42.6685ZM294.767 36.8594L296.605 39.8873L294.762 42.9247H291.086L289.247 39.8968L291.091 36.8594H294.767ZM289.856 39.8873L291.387 37.3657H294.46L295.996 39.8968L294.466 42.4183H291.393L289.856 39.8873ZM304.891 42.4375L306.729 45.4654L304.885 48.5028H301.209L299.371 45.4749L301.215 42.4375H304.891ZM299.98 45.4654L301.511 42.9438H304.583L306.12 45.4749L304.589 47.9965H301.516L299.98 45.4654ZM309.952 45.2266L311.791 48.2545L309.947 51.2919H306.271L304.433 48.264L306.276 45.2266H309.952ZM305.042 48.2545L306.572 45.7329H309.645L311.182 48.264L309.651 50.7855H306.578L305.042 48.2545ZM315.156 48.0234L316.995 51.0513L315.151 54.0887H311.332L309.494 51.0608L311.338 48.0234H315.156ZM310.103 51.0513L311.634 48.5298H314.849L316.386 51.0608L314.855 53.5824H311.64L310.103 51.0513ZM299.829 45.2266L301.667 48.2545L299.823 51.2919H296.147L294.309 48.264L296.153 45.2266H299.829ZM294.918 48.2545L296.449 45.7329H299.522L301.058 48.264L299.527 50.7855H296.455L294.918 48.2545ZM294.767 42.4375L296.605 45.4654L294.762 48.5028H291.086L289.247 45.4749L291.091 42.4375H294.767ZM289.856 45.4654L291.387 42.9438H294.46L295.996 45.4749L294.466 47.9965H291.393L289.856 45.4654ZM304.891 48.0234L306.729 51.0513L304.885 54.0887H301.209L299.371 51.0608L301.215 48.0234H304.891ZM299.98 51.0513L301.511 48.5298H304.583L306.12 51.0608L304.589 53.5824H301.516L299.98 51.0513ZM309.952 50.8125L311.791 53.8404L309.947 56.8778H306.271L304.433 53.8499L306.276 50.8125H309.952ZM305.042 53.8404L306.572 51.3188H309.645L311.182 53.8499L309.651 56.3715H306.578L305.042 53.8404ZM315.156 53.6016L316.995 56.6295L315.151 59.6669H311.332L309.494 56.639L311.338 53.6016H315.156ZM310.103 56.6295L311.634 54.1079H314.849L316.386 56.639L314.855 59.1605H311.64L310.103 56.6295ZM299.795 50.7812L301.633 53.8092L299.79 56.8465H296.114L294.275 53.8186L296.119 50.7812H299.795ZM294.884 53.8092L296.415 51.2876H299.488L301.024 53.8186L299.494 56.3402H296.421L294.884 53.8092ZM294.734 47.9922L296.572 51.0201L294.728 54.0575H291.052L289.214 51.0296L291.058 47.9922H294.734ZM289.823 51.0201L291.353 48.4985H294.426L295.963 51.0296L294.432 53.5511H291.359L289.823 51.0201ZM304.857 53.5625L306.695 56.5904L304.851 59.6278H301.175L299.337 56.5999L301.181 53.5625H304.857ZM299.946 56.5904L301.477 54.0688H304.55L306.086 56.5999L304.555 59.1215H301.483L299.946 56.5904ZM309.919 56.3672L311.757 59.3951L309.913 62.4325H306.237L304.399 59.4046L306.243 56.3672H309.919ZM305.008 59.3951L306.538 56.8735H309.611L311.148 59.4046L309.617 61.9261H306.544L305.008 59.3951ZM315.123 59.1562L316.961 62.1842L315.117 65.2215H311.299L309.461 62.1936L311.304 59.1562H315.123ZM310.07 62.1842L311.6 59.6626H314.815L316.352 62.1936L314.821 64.7152H311.606L310.07 62.1842ZM304.891 36.8594L306.729 39.8873L304.885 42.9247H301.209L299.371 39.8968L301.215 36.8594H304.891ZM299.98 39.8873L301.511 37.3657H304.583L306.12 39.8968L304.589 42.4183H301.516L299.98 39.8873ZM299.829 34.0547L301.667 37.0826L299.823 40.12H296.147L294.309 37.0921L296.153 34.0547H299.829ZM294.918 37.0826L296.449 34.561H299.522L301.058 37.0921L299.527 39.6136H296.455L294.918 37.0826ZM309.952 39.6406L311.791 42.6685L309.947 45.7059H306.271L304.433 42.678L306.276 39.6406H309.952ZM305.042 42.6685L306.572 40.147H309.645L311.182 42.678L309.651 45.1996H306.578L305.042 42.6685ZM315.156 42.4375L316.995 45.4654L315.151 48.5028H311.332L309.494 45.4749L311.338 42.4375H315.156ZM310.103 45.4654L311.634 42.9438H314.849L316.386 45.4749L314.855 47.9965H311.64L310.103 45.4654ZM320.52 45.2266L322.358 48.2545L320.514 51.2919H316.536L314.698 48.264L316.542 45.2266H320.52ZM315.307 48.2545L316.838 45.7329H320.213L321.749 48.264L320.218 50.7855H316.844L315.307 48.2545ZM309.952 34.0547L311.791 37.0826L309.947 40.12H306.271L304.433 37.0921L306.276 34.0547H309.952ZM305.042 37.0826L306.572 34.561H309.645L311.182 37.0921L309.651 39.6136H306.578L305.042 37.0826ZM304.891 31.2656L306.729 34.2935L304.885 37.3309H301.209L299.371 34.303L301.215 31.2656H304.891ZM299.98 34.2935L301.511 31.772H304.583L306.12 34.303L304.589 36.8246H301.516L299.98 34.2935ZM315.156 36.8594L316.995 39.8873L315.151 42.9247H311.332L309.494 39.8968L311.338 36.8594H315.156ZM310.103 39.8873L311.634 37.3657H314.849L316.386 39.8968L314.855 42.4183H311.64L310.103 39.8873ZM320.52 39.6406L322.358 42.6685L320.514 45.7059H316.536L314.698 42.678L316.542 39.6406H320.52ZM315.307 42.6685L316.838 40.147H320.213L321.749 42.678L320.218 45.1996H316.844L315.307 42.6685ZM326.179 42.4375L328.017 45.4654L326.173 48.5028H321.9L320.062 45.4749L321.905 42.4375H326.179ZM320.671 45.4654L322.201 42.9438H325.871L327.408 45.4749L325.877 47.9965H322.207L320.671 45.4654ZM284.644 3.40625L286.482 6.43416L284.638 9.47155H280.962L279.124 6.44364L280.968 3.40625H284.644ZM279.733 6.43416L281.264 3.91258L284.337 3.91259L285.873 6.44364L284.342 8.96521H281.27L279.733 6.43416ZM284.644 8.98438L286.482 12.0123L284.638 15.0497H280.962L279.124 12.0218L280.968 8.98438H284.644ZM279.733 12.0123L281.264 9.49071L284.337 9.49071L285.873 12.0218L284.342 14.5433H281.27L279.733 12.0123ZM274.487 8.94531L276.325 11.9732L274.481 15.0106H270.805L268.967 11.9827L270.811 8.94531H274.487ZM269.576 11.9732L271.107 9.45165L274.179 9.45165L275.716 11.9827L274.185 14.5043H271.112L269.576 11.9732ZM279.549 11.75L281.387 14.7779L279.543 17.8153H275.867L274.029 14.7874L275.872 11.75H279.549ZM274.638 14.7779L276.168 12.2563L279.241 12.2563L280.778 14.7874L279.247 17.309H276.174L274.638 14.7779ZM284.61 14.5391L286.448 17.567L284.604 20.6044H280.928L279.09 17.5765L280.934 14.5391H284.61ZM279.699 17.567L281.23 15.0454L284.303 15.0454L285.839 17.5765L284.309 20.098H281.236L279.699 17.567ZM294.767 -2.17969L296.605 0.84822L294.762 3.88561H291.086L289.248 0.857701L291.091 -2.17969H294.767ZM289.856 0.848219L291.387 -1.67335H294.46L295.996 0.857702L294.466 3.37927H291.393L289.856 0.848219ZM320.554 50.8125L322.392 53.8404L320.548 56.8778H316.57L314.732 53.8499L316.576 50.8125H320.554ZM315.341 53.8404L316.872 51.3188H320.246L321.783 53.8499L320.252 56.3715H316.877L315.341 53.8404ZM326.213 48.0078L328.051 51.0357L326.207 54.0731H321.933L320.095 51.0452L321.939 48.0078H326.213ZM320.704 51.0357L322.235 48.5141H325.905L327.442 51.0452L325.911 53.5668H322.241L320.704 51.0357ZM294.801 8.92969L296.639 11.9576L294.795 14.995H291.119L289.281 11.9671L291.125 8.92969H294.801ZM289.89 11.9576L291.421 9.43602L294.494 9.43602L296.03 11.9671L294.5 14.4886H291.427L289.89 11.9576ZM289.739 6.14844L291.577 9.17634L289.734 12.2137H286.058L284.22 9.18583L286.063 6.14844H289.739ZM284.829 9.17634L286.359 6.65477L289.432 6.65477L290.969 9.18583L289.438 11.7074H286.365L284.829 9.17634ZM299.863 11.7266L301.701 14.7545L299.857 17.7919H296.181L294.343 14.764L296.187 11.7266H299.863ZM294.952 14.7545L296.483 12.2329L299.556 12.2329L301.092 14.764L299.561 17.2855H296.488L294.952 14.7545ZM304.925 14.5156L306.763 17.5435L304.919 20.5809H301.243L299.405 17.553L301.249 14.5156H304.925ZM300.014 17.5435L301.544 15.022L304.617 15.022L306.154 17.553L304.623 20.0746H301.55L300.014 17.5435ZM309.986 17.3125L311.824 20.3404L309.981 23.3778H306.304L304.466 20.3499L306.31 17.3125H309.986ZM305.075 20.3404L306.606 17.8188L309.679 17.8188L311.215 20.3499L309.685 22.8715H306.612L305.075 20.3404ZM294.801 14.5156L296.639 17.5435L294.795 20.5809H291.119L289.281 17.553L291.125 14.5156H294.801ZM289.89 17.5435L291.421 15.022L294.494 15.022L296.03 17.553L294.5 20.0746H291.427L289.89 17.5435ZM289.739 11.7266L291.577 14.7545L289.734 17.7919H286.058L284.22 14.764L286.063 11.7266H289.739ZM284.829 14.7545L286.359 12.2329L289.432 12.2329L290.969 14.764L289.438 17.2855H286.365L284.829 14.7545ZM299.863 17.3125L301.701 20.3404L299.857 23.3778H296.181L294.343 20.3499L296.187 17.3125H299.863ZM294.952 20.3404L296.483 17.8188L299.556 17.8188L301.092 20.3499L299.561 22.8715H296.488L294.952 20.3404ZM304.925 20.1016L306.763 23.1295L304.919 26.1669H301.243L299.405 23.139L301.249 20.1016H304.925ZM300.014 23.1295L301.544 20.6079H304.617L306.154 23.139L304.623 25.6605H301.55L300.014 23.1295ZM309.986 22.8906L311.824 25.9185L309.981 28.9559H306.304L304.466 25.928L306.31 22.8906H309.986ZM305.075 25.9185L306.606 23.397H309.679L311.215 25.928L309.685 28.4496H306.612L305.075 25.9185ZM294.767 20.0703L296.605 23.0982L294.762 26.1356H291.086L289.248 23.1077L291.091 20.0703H294.767ZM289.856 23.0982L291.387 20.5766H294.46L295.996 23.1077L294.466 25.6293H291.393L289.856 23.0982ZM289.706 17.2812L291.544 20.3092L289.7 23.3465H286.024L284.186 20.3186L286.03 17.2812H289.706ZM284.795 20.3092L286.325 17.7876L289.398 17.7876L290.935 20.3186L289.404 22.8402H286.331L284.795 20.3092ZM299.829 22.8516L301.667 25.8795L299.823 28.9169H296.147L294.309 25.889L296.153 22.8516H299.829ZM294.918 25.8795L296.449 23.3579H299.522L301.058 25.889L299.527 28.4105H296.455L294.918 25.8795ZM304.891 25.6562L306.729 28.6842L304.885 31.7215H301.209L299.371 28.6936L301.215 25.6562H304.891ZM299.98 28.6842L301.511 26.1626H304.583L306.12 28.6936L304.589 31.2152H301.516L299.98 28.6842ZM309.953 28.4453L311.791 31.4732L309.947 34.5106H306.271L304.433 31.4827L306.276 28.4453H309.953ZM305.042 31.4732L306.572 28.9516H309.645L311.182 31.4827L309.651 34.0043H306.578L305.042 31.4732ZM299.863 6.14844L301.701 9.17634L299.857 12.2137H296.181L294.343 9.18583L296.187 6.14844H299.863ZM294.952 9.17634L296.483 6.65477L299.556 6.65477L301.092 9.18583L299.561 11.7074H296.488L294.952 9.17634ZM294.801 3.34375L296.639 6.37166L294.795 9.40905H291.119L289.281 6.38114L291.125 3.34375H294.801ZM289.89 6.37166L291.421 3.85008L294.494 3.85009L296.03 6.38114L294.5 8.90271H291.427L289.89 6.37166ZM304.925 8.92969L306.763 11.9576L304.919 14.995H301.243L299.405 11.9671L301.249 8.92969H304.925ZM300.014 11.9576L301.544 9.43602L304.617 9.43602L306.154 11.9671L304.623 14.4886H301.55L300.014 11.9576ZM309.986 11.7266L311.824 14.7545L309.981 17.7919H306.304L304.466 14.764L306.31 11.7266H309.986ZM305.075 14.7545L306.606 12.2329L309.679 12.2329L311.215 14.764L309.685 17.2855H306.612L305.075 14.7545ZM315.19 14.5156L317.028 17.5435L315.185 20.5809H311.366L309.528 17.553L311.372 14.5156H315.19ZM310.137 17.5435L311.668 15.022L314.883 15.022L316.419 17.553L314.889 20.0746H311.674L310.137 17.5435ZM304.925 3.34375L306.763 6.37166L304.919 9.40905H301.243L299.405 6.38114L301.249 3.34375H304.925ZM300.014 6.37166L301.544 3.85008L304.617 3.85009L306.154 6.38114L304.623 8.90271H301.55L300.014 6.37166ZM299.863 0.554688L301.701 3.58259L299.857 6.61998H296.181L294.343 3.59208L296.187 0.554688H299.863ZM294.952 3.58259L296.483 1.06102H299.556L301.092 3.59208L299.561 6.11365H296.488L294.952 3.58259ZM309.986 6.14844L311.824 9.17634L309.981 12.2137H306.304L304.466 9.18583L306.31 6.14844H309.986ZM305.075 9.17634L306.606 6.65477L309.679 6.65477L311.215 9.18583L309.685 11.7074H306.612L305.075 9.17634ZM315.19 8.92969L317.028 11.9576L315.185 14.995H311.366L309.528 11.9671L311.372 8.92969H315.19ZM310.137 11.9576L311.668 9.43602L314.883 9.43602L316.419 11.9671L314.889 14.4886H311.674L310.137 11.9576ZM320.554 11.7266L322.392 14.7545L320.548 17.7919H316.57L314.732 14.764L316.576 11.7266H320.554ZM315.341 14.7545L316.872 12.2329L320.246 12.2329L321.783 14.764L320.252 17.2855H316.878L315.341 14.7545Z" stroke="white" stroke-width="0.5"/>
</g>
<path d="M72.4194 69.8122H73.4516V67.7477H75.6452V69.8122H77.8387V71.7477H75.7742V75.7477C75.7742 76.651 76.0323 76.909 76.9355 76.909H77.8387V78.7155H76.4194C74.2258 78.7155 73.4516 77.9413 73.4516 75.6187V71.7477H72.4194V69.8122Z" fill="#010205"/>
<path d="M82.3549 73.4252L83.5161 73.1671V72.78C83.5161 71.7477 83.3871 71.3606 82.4839 71.3606C81.5807 71.3606 81.3226 71.4897 81.1936 72.5219H79.1291C79.1291 70.5864 80.0323 69.4251 82.4839 69.4251C85.3226 69.4251 85.7097 70.9735 85.7097 72.5219V78.3284H83.5161V77.4252C83.2581 78.0703 82.6129 78.4574 81.4516 78.4574C79.7742 78.4574 78.871 77.6832 78.871 76.0058C78.871 74.5864 80.0323 73.9413 82.3549 73.4252ZM83.5161 74.8445H82.742C81.5807 74.9735 81.1936 75.3606 81.1936 76.0058C81.1936 76.651 81.5807 77.0381 82.2258 77.0381C83 77.0381 83.5161 76.651 83.5161 75.6187V74.8445Z" fill="#010205"/>
<path d="M87.5161 66.0703H89.8387V68.1348H87.5161V66.0703ZM87.5161 69.8122H89.8387V78.5864H87.5161V69.8122Z" fill="#010205"/>
<path d="M91.6452 66.0703H93.9678V78.5864H91.6452V66.0703Z" fill="#010205"/>
<path d="M95.3871 74.1993C95.3871 70.7155 96.4194 69.6832 99.129 69.6832C101.839 69.6832 102.871 70.8445 102.871 74.1993C102.871 77.6832 101.968 78.7155 99.129 78.7155C96.2903 78.7155 95.3871 77.5542 95.3871 74.1993ZM100.677 74.1993C100.677 72.0058 100.419 71.6187 99.2581 71.6187C98.0968 71.6187 97.8387 72.0058 97.8387 74.1993C97.8387 76.651 98.2258 77.0381 99.2581 77.0381C100.29 76.909 100.677 76.5219 100.677 74.1993Z" fill="#010205"/>
<path d="M104.419 72.78C104.419 70.5864 105.323 69.6832 107.516 69.6832H108.936V71.6187H107.774C107 71.6187 106.742 71.8768 106.742 72.651V78.4574H104.419V72.78Z" fill="#010205"/>
<path d="M109.71 74.1993C109.71 70.8445 110.742 69.5542 113.452 69.5542C116.29 69.5542 116.936 70.9735 116.936 74.0703V74.5864H112.032C112.032 76.651 112.419 76.909 113.452 76.909C114.355 76.909 114.742 76.651 114.742 75.7477H116.806C116.677 77.5542 115.645 78.5864 113.452 78.5864C110.613 78.7155 109.71 77.5542 109.71 74.1993ZM112.032 73.1671H114.742C114.613 71.8768 114.355 71.6187 113.452 71.6187C112.548 71.4897 112.161 71.7477 112.032 73.1671Z" fill="#010205"/>
<path d="M118.097 74.1993C118.097 70.7155 119.258 69.6832 121.452 69.6832C122.226 69.6832 123 69.9413 123.387 70.5864V66.0703H125.71V78.5864H123.516V77.4252C123.129 78.4574 122.355 78.7155 121.323 78.7155C119 78.7155 118.097 77.6832 118.097 74.1993ZM123.387 74.1993C123.387 71.8768 123 71.6187 121.968 71.6187C120.806 71.6187 120.548 72.0058 120.548 74.1993C120.548 76.5219 120.806 77.0381 121.968 77.0381C123 76.909 123.387 76.651 123.387 74.1993Z" fill="#010205"/>
<path d="M130.355 74.1993C130.355 70.8445 131.387 69.6832 134.097 69.6832C136.677 69.6832 137.452 70.8445 137.452 73.4252H135.258C135.129 72.0058 134.871 71.7477 133.968 71.7477C132.806 71.7477 132.677 72.1348 132.677 74.4574C132.677 76.78 132.936 77.1671 133.968 77.1671C134.871 77.1671 135.258 76.78 135.258 75.3606H137.452C137.323 77.9413 136.419 78.9735 134.097 78.9735C131.258 78.7155 130.355 77.5542 130.355 74.1993Z" fill="#010205"/>
<path d="M138.871 69.8122H141.194V75.2316C141.194 76.651 141.452 77.0381 142.484 77.0381C143.516 77.0381 143.774 76.651 143.774 75.3606V69.9413H146.097V78.7155H143.903V77.6832C143.645 78.4574 142.871 78.8445 141.839 78.8445C139.774 78.8445 139.129 77.6832 139.129 75.6187V69.8122H138.871Z" fill="#010205"/>
<path d="M149.452 75.8768C149.452 76.78 149.839 77.0381 150.742 77.0381C151.645 77.0381 151.903 76.78 151.903 76.1348C151.903 75.4897 151.645 75.3606 150.742 75.2316L149.71 74.9735C148.419 74.7155 147.387 73.9413 147.387 72.2639C147.387 70.4574 148.548 69.5542 150.742 69.5542C153.065 69.5542 153.968 70.4574 153.968 72.5219H151.903C151.903 71.6187 151.645 71.3606 150.742 71.3606C149.839 71.3606 149.581 71.4897 149.581 72.2639C149.581 72.78 149.839 73.0381 150.742 73.2961L151.774 73.5542C153.323 73.8122 153.968 74.7155 153.968 76.1348C153.968 77.6832 153.194 78.7155 150.484 78.7155C147.774 78.7155 147.258 77.4252 147.258 75.8768H149.452Z" fill="#010205"/>
<path d="M155.903 69.8122V67.7477H158.097V69.8122H160.161V71.7477H158.097V75.7477C158.097 76.651 158.355 76.909 159.258 76.909H160.161V78.7155H158.742C156.548 78.7155 155.774 77.9413 155.774 75.6187V71.7477H154.742V69.8122H155.903Z" fill="#010205"/>
<path d="M161.194 74.1993C161.194 70.7155 162.226 69.6832 164.935 69.6832C167.645 69.6832 168.677 70.8445 168.677 74.1993C168.677 77.6832 167.774 78.7155 164.935 78.7155C162.097 78.7155 161.194 77.5542 161.194 74.1993ZM166.484 74.1993C166.484 72.0058 166.226 71.6187 165.065 71.6187C163.903 71.6187 163.645 72.0058 163.645 74.1993C163.645 76.651 164.032 77.0381 165.065 77.0381C166.097 76.909 166.484 76.5219 166.484 74.1993Z" fill="#010205"/>
<path d="M170.226 69.8122H172.419V70.8445C172.677 70.0703 173.452 69.6832 174.484 69.6832C175.774 69.6832 176.548 70.1993 176.936 70.9735C177.194 70.0703 178.097 69.6832 179.258 69.6832C181.323 69.6832 181.968 70.8445 181.968 72.909V78.5864H179.774V73.4252C179.774 72.1348 179.516 71.7477 178.613 71.7477C177.71 71.7477 177.323 72.1348 177.323 73.2961V78.7155H175V73.5542C175 72.2639 174.742 71.8768 173.839 71.8768C172.935 71.8768 172.548 72.2639 172.548 73.4252V78.8445H170.226V69.8122Z" fill="#010205"/>
<path d="M183.516 74.1993C183.516 70.8445 184.548 69.5542 187.258 69.5542C190.097 69.5542 190.742 70.9735 190.742 74.0703V74.5864H185.839C185.839 76.651 186.226 76.909 187.258 76.909C188.161 76.909 188.548 76.651 188.548 75.7477H190.613C190.484 77.5542 189.452 78.5864 187.258 78.5864C184.548 78.7155 183.516 77.5542 183.516 74.1993ZM185.839 73.1671H188.548C188.419 71.8768 188.161 71.6187 187.258 71.6187C186.484 71.4897 185.968 71.7477 185.839 73.1671Z" fill="#010205"/>
<path d="M192.161 72.78C192.161 70.5864 193.065 69.6832 195.258 69.6832H196.677V71.6187H195.516C194.742 71.6187 194.484 71.8768 194.484 72.651V78.4574H192.161V72.78Z" fill="#010205"/>
<path d="M202.355 75.8768C202.355 76.78 202.742 77.0381 203.645 77.0381C204.548 77.0381 204.806 76.78 204.806 76.1348C204.806 75.4897 204.548 75.3606 203.645 75.2316L202.613 74.9735C201.323 74.7155 200.29 73.9413 200.29 72.2639C200.29 70.4574 201.452 69.5542 203.645 69.5542C205.968 69.5542 206.871 70.4574 206.871 72.5219H204.806C204.806 71.6187 204.548 71.3606 203.645 71.3606C202.742 71.3606 202.484 71.4897 202.484 72.2639C202.484 72.78 202.742 73.0381 203.645 73.2961L204.677 73.5542C206.226 73.8122 206.871 74.7155 206.871 76.1348C206.871 77.6832 206.097 78.7155 203.387 78.7155C200.677 78.7155 200.161 77.4252 200.161 75.8768H202.355Z" fill="#010205"/>
<path d="M208.032 74.1993C208.032 70.8445 209.065 69.5542 211.774 69.5542C214.613 69.5542 215.258 70.9735 215.258 74.0703V74.5864H210.355C210.355 76.651 210.742 76.909 211.774 76.909C212.677 76.909 213.065 76.651 213.065 75.7477H215.129C215 77.5542 213.968 78.5864 211.774 78.5864C209.065 78.7155 208.032 77.5542 208.032 74.1993ZM210.484 73.1671H213.194C213.065 71.8768 212.806 71.6187 211.903 71.6187C211 71.4897 210.613 71.7477 210.484 73.1671Z" fill="#010205"/>
<path d="M216.677 72.78C216.677 70.5864 217.581 69.6832 219.774 69.6832H221.194V71.6187H220.032C219.258 71.6187 219 71.8768 219 72.651V78.4574H216.677V72.78Z" fill="#010205"/>
<path d="M222.097 69.8122H224.548L226.355 75.7477L228.161 69.8122H230.226L227.258 78.5864H225.065L222.097 69.8122Z" fill="#010205"/>
<path d="M231.129 66.0703H233.452V68.1348H231.129V66.0703ZM231.129 69.8122H233.452V78.5864H231.129V69.8122Z" fill="#010205"/>
<path d="M234.871 74.1993C234.871 70.8445 235.903 69.6832 238.613 69.6832C241.194 69.6832 241.968 70.8445 241.968 73.4252H239.774C239.645 72.0058 239.387 71.7477 238.484 71.7477C237.323 71.7477 237.194 72.1348 237.194 74.4574C237.194 76.78 237.452 77.1671 238.484 77.1671C239.387 77.1671 239.774 76.78 239.774 75.3606H241.968C241.839 77.9413 240.936 78.9735 238.613 78.9735C235.774 78.7155 234.871 77.5542 234.871 74.1993Z" fill="#010205"/>
<path d="M243.129 74.1993C243.129 70.8445 244.161 69.5542 246.871 69.5542C249.71 69.5542 250.355 70.9735 250.355 74.0703V74.5864H245.452C245.452 76.651 245.839 76.909 246.871 76.909C247.774 76.909 248.161 76.651 248.161 75.7477H250.226C250.097 77.5542 249.065 78.5864 246.871 78.5864C244.032 78.7155 243.129 77.5542 243.129 74.1993ZM245.452 73.1671H248.161C248.032 71.8768 247.774 71.6187 246.871 71.6187C245.968 71.4897 245.581 71.7477 245.452 73.1671Z" fill="#010205"/>
<path d="M248.935 45.4229C248.935 47.2293 249.968 48.9068 251.516 49.81L267 58.7132C268.548 59.6164 270.484 59.6164 272.161 58.7132L279.903 54.1971L287.645 49.681C289.194 48.7777 290.226 47.1003 290.226 45.2938V27.3584C290.226 25.5519 289.194 23.8745 287.645 22.9713L272.161 14.068C270.613 13.1648 268.677 13.1648 267 14.068L251.516 22.9713C249.968 23.8745 248.935 25.5519 248.935 27.3584V36.2616V45.4229Z" fill="url(#paint1_linear_4040_292764)"/>
<path d="M264.161 59.3518C264.161 61.4163 265.323 63.3518 267 64.3841L284.677 74.5776C286.484 75.6099 288.677 75.6099 290.484 74.5776L299.258 69.5454L308.032 64.5131C309.839 63.4808 310.871 61.5454 310.871 59.4808V39.0937C310.871 37.0292 309.71 35.0938 308.032 34.0615L290.355 23.8679C288.548 22.8357 286.355 22.8357 284.548 23.8679L266.871 34.0615C265.064 35.0938 264.032 37.0292 264.032 39.0937V49.2873L264.161 59.3518Z" fill="url(#paint2_linear_4040_292764)"/>
<path d="M269.581 43.4907H272.419V44.91C272.935 43.6197 273.968 43.2326 275.129 43.2326C278.097 43.2326 279.387 44.652 279.387 49.1681C279.387 53.6842 277.968 55.1036 275.129 55.1036C274.097 55.1036 273.194 54.8455 272.677 53.8133V59.6197H269.71V43.4907H269.581ZM276.29 49.1681C276.29 46.3294 275.903 45.8133 274.484 45.8133C273.064 45.8133 272.548 46.2004 272.548 49.1681C272.548 52.2649 273.064 52.781 274.484 52.781C275.903 52.781 276.29 52.2649 276.29 49.1681ZM281.194 38.7165H284.161V54.8455H281.194V38.7165ZM289.323 43.4907V50.4584C289.323 52.2649 289.71 52.781 290.871 52.781C292.032 52.781 292.419 52.2649 292.419 50.5875V43.4907H295.387V54.8455H292.548V53.4262C292.161 54.4584 291.258 54.9745 289.839 54.9745C287.258 54.9745 286.226 53.5552 286.226 50.8455V43.4907H289.323ZM300.032 51.4907C300.161 52.652 300.548 53.0391 301.71 53.0391C303 53.0391 303.258 52.652 303.258 51.8778C303.258 51.1036 303 50.8455 301.839 50.7165L300.419 50.4584C298.742 50.0713 297.452 49.1681 297.452 46.9745C297.452 44.652 299 43.4907 301.71 43.4907C304.806 43.4907 305.839 44.652 305.839 47.3616H303.258C303.129 46.2004 302.871 45.8133 301.71 45.8133C300.548 45.8133 300.161 46.0713 300.161 46.8455C300.161 47.6197 300.419 47.8778 301.71 48.1358L303.129 48.3939C305.064 48.781 305.968 49.8133 305.968 51.7487C305.968 53.6842 304.935 55.1036 301.452 55.1036C297.968 55.1036 297.323 53.5552 297.194 51.4907H300.032Z" fill="#BB302C"/>
<path d="M6.87098 45.0391C7.12905 49.4262 8.1613 50.7165 12.0323 50.7165C15.6452 50.7165 16.9355 49.5552 16.9355 46.4584C16.9355 43.7487 15.6452 42.8455 12.1613 41.9423L9.58066 41.2971C3.77421 39.8778 0.806465 37.5552 0.806465 30.9745C0.806465 24.781 3.77421 21.0391 11.9032 21.0391C20.6774 21.0391 23 24.5229 23.2581 32.2649H16.9355C16.6774 27.8778 15.6452 26.9745 12.0323 26.9745C8.80646 26.9745 7.38711 28.0068 7.38711 30.8455C7.38711 33.8133 8.67743 34.5875 12.4194 35.4907L15 36.1358C20.8065 37.5552 23.6452 40.2649 23.6452 46.0713C23.6452 52.2649 20.5484 55.7487 12.0323 55.7487C3.64517 55.7487 0.935498 52.781 0.548401 44.781H6.87098V45.0391Z" fill="#BB302C"/>
<path d="M46.6129 43.4907C46.6129 35.1036 44.6774 31.1036 37.0645 31.1036C29.8387 31.1036 27 34.5874 27 43.4907C27 52.3939 29.7097 55.7487 37.3226 55.7487C43.5161 55.7487 46.0968 52.781 46.4839 48.0068H40.9355C40.6774 50.4584 39.6452 51.1036 37.3226 51.1036C34.3549 51.1036 33.4516 50.2003 33.3226 44.652H46.6129V43.4907ZM33.3226 40.652C33.7097 36.91 34.871 36.2649 37.0645 36.2649C39.3871 36.2649 40.4194 37.0391 40.5484 40.652H33.3226Z" fill="#BB302C"/>
<path d="M50.2258 39.7487C50.2258 33.9423 52.5484 31.4907 58.4839 31.4907H62.4839V36.652H59.3871C57.3226 36.652 56.5484 37.4262 56.5484 39.4907V55.3616H50.3549V39.7487H50.2258Z" fill="#BB302C"/>
<path d="M64.6775 31.5008H71.2581L76.1613 47.5008L81.0646 31.5008H86.613L78.613 55.3717H72.8065L64.6775 31.5008Z" fill="#BB302C"/>
<path d="M95.3872 21.6983H89.1936V27.3758H95.3872V21.6983Z" fill="#BB302C"/>
<path d="M95.3872 31.5088H89.1937V55.3798H95.3872V31.5088Z" fill="#BB302C"/>
<path d="M99.3872 43.3798C99.3872 34.2185 102.097 31.1217 109.452 31.1217C116.419 31.1217 118.355 34.3475 118.742 41.0572H112.936C112.678 37.3153 112.032 36.412 109.452 36.412C106.484 36.412 105.839 37.3153 105.839 43.6378C105.839 49.9604 106.484 50.8637 109.452 50.8637C112.032 50.8637 112.807 49.7024 112.936 45.8314H118.742C118.484 52.6701 115.774 55.6378 109.452 55.6378C101.71 55.7669 99.3872 52.412 99.3872 43.3798Z" fill="#BB302C"/>
<path d="M141.194 43.5088C141.194 35.1217 139.258 31.1217 131.645 31.1217C124.419 31.1217 121.581 34.6056 121.581 43.5088C121.581 52.412 124.29 55.7669 131.903 55.7669C138.097 55.7669 140.678 52.7991 141.065 48.0249H135.516C135.258 50.4766 134.226 51.1217 131.903 51.1217C128.936 51.1217 128.032 50.2185 127.903 44.6701H141.194V43.5088ZM127.903 40.6701C128.29 36.9282 129.452 36.283 131.645 36.283C133.968 36.283 135 37.0572 135.258 40.6701H127.903Z" fill="#BB302C"/>
<path d="M154.097 21.6923H160.936L172.032 43.3697V21.6923H178.097V55.3697H171.645L160.161 32.9181V55.3697H154.097V21.6923ZM184.032 21.6923H204.032V27.4987H190.484V35.6278H202.871V41.1762H190.484V50.0794H204.032V55.2407H184.032V21.6923ZM216.032 38.3375L207.129 21.6923H214.226L220.161 32.9181L226.097 21.6923H232.677L223.645 38.3375L232.936 55.3697H225.839L219.645 43.6278L213.452 55.3697H207L216.032 38.3375ZM235 21.6923H258.613V27.4987H250.097V55.3697H243.645V27.4987H235V21.6923Z" fill="#BB302C"/>
</g>
<defs>
<linearGradient id="paint0_linear_4040_292764" x1="263.993" y1="56.2216" x2="322.186" y2="15.4742" gradientUnits="userSpaceOnUse">
<stop offset="2.64094e-07" stop-color="#EEEFEF"/>
<stop offset="1" stop-color="#B9B9BA"/>
</linearGradient>
<linearGradient id="paint1_linear_4040_292764" x1="269.605" y1="59.478" x2="269.605" y2="13.4415" gradientUnits="userSpaceOnUse">
<stop stop-color="#FCFBFC"/>
<stop offset="1" stop-color="#EDEEEF"/>
</linearGradient>
<linearGradient id="paint2_linear_4040_292764" x1="278.096" y1="51.4541" x2="325.506" y2="40.0517" gradientUnits="userSpaceOnUse">
<stop stop-color="#FCFBFC"/>
<stop offset="1" stop-color="#EDEEEF"/>
</linearGradient>
<clipPath id="clip0_4040_292764">
<rect width="325.161" height="80" fill="white" transform="translate(0.419373)"/>
</clipPath>
</defs>
</svg>
