<svg width="20" height="20" viewBox="0 0 20 20" fill="none" xmlns="http://www.w3.org/2000/svg">
<path fill-rule="evenodd" clip-rule="evenodd" d="M12.5 7.39996C12.5 9.29996 11.6667 10.8333 9.16668 10.8333C6.66668 10.8333 5.83335 9.29996 5.83335 7.39996V5.09996C5.83335 3.19996 6.66668 1.66663 9.16668 1.66663C11.6667 1.66663 12.5 3.19996 12.5 5.09996V7.39996ZM9.16668 2.49996C8.09168 2.49996 6.66668 2.76663 6.66668 5.09996V7.39996C6.66668 9.73329 8.09168 9.99996 9.16668 9.99996C10.2417 9.99996 11.6667 9.73329 11.6667 7.39996V5.09996C11.6667 2.76663 10.2417 2.49996 9.16668 2.49996Z" fill="#010205"/>
<path d="M2.50002 15.8333H11.6667V16.6666H1.66668V14.5416C1.60582 13.5727 1.85591 12.6096 2.38054 11.7927C2.90516 10.9758 3.6769 10.3477 4.58335 9.99996C4.67909 10.2606 4.79906 10.5117 4.94168 10.75C4.17851 11.0316 3.52761 11.5538 3.08718 12.2377C2.64675 12.9217 2.44067 13.7303 2.50002 14.5416V15.8333Z" fill="#010205"/>
<path d="M15 10.85V18.3289H19.2017V17.331H16.2395V10.85H15Z" fill="#010205"/>
</svg>
