<svg width="20" height="20" viewBox="0 0 20 20" fill="none" xmlns="http://www.w3.org/2000/svg">
<path d="M5.8335 2.5V17.5H14.1668V2.5H5.8335ZM13.3335 16.6667H6.66683V14.1667H13.3335V16.6667ZM13.3335 13.3333H6.66683V5H13.3335V13.3333ZM13.3335 4.16667H6.66683V3.33333H13.3335V4.16667Z" fill="#3761E4"/>
<path d="M9.6335 15.8333H10.3668C10.4773 15.8333 10.5833 15.7894 10.6615 15.7113C10.7396 15.6332 10.7835 15.5272 10.7835 15.4167C10.7835 15.3062 10.7396 15.2002 10.6615 15.122C10.5833 15.0439 10.4773 15 10.3668 15H9.6335C9.52299 15 9.41701 15.0439 9.33887 15.122C9.26073 15.2002 9.21683 15.3062 9.21683 15.4167C9.21683 15.5272 9.26073 15.6332 9.33887 15.7113C9.41701 15.7894 9.52299 15.8333 9.6335 15.8333Z" fill="#3761E4"/>
</svg>
