<svg width="24" height="24" viewBox="0 0 24 24" fill="none" xmlns="http://www.w3.org/2000/svg">
<path d="M10.0002 16C10.4062 16.0502 10.8183 16.0072 11.2051 15.8742C11.592 15.7412 11.9434 15.5217 12.2327 15.2325C12.5219 14.9432 12.7414 14.5918 12.8744 14.2049C13.0074 13.8181 13.0504 13.406 13.0002 13V11C13.0504 10.594 13.0074 10.1819 12.8744 9.79507C12.7414 9.40821 12.5219 9.05678 12.2327 8.76752C11.9434 8.47826 11.592 8.25878 11.2051 8.12578C10.8183 7.99278 10.4062 7.94976 10.0002 8C9.5942 7.94976 9.1821 7.99278 8.79525 8.12578C8.40839 8.25878 8.05696 8.47826 7.7677 8.76752C7.47844 9.05678 7.25896 9.40821 7.12596 9.79507C6.99296 10.1819 6.94994 10.594 7.00018 11V13C6.94994 13.406 6.99296 13.8181 7.12596 14.2049C7.25896 14.5918 7.47844 14.9432 7.7677 15.2325C8.05696 15.5217 8.40839 15.7412 8.79525 15.8742C9.1821 16.0072 9.5942 16.0502 10.0002 16ZM8.00018 11C8.00018 9.6 8.60018 9 10.0002 9C11.4002 9 12.0002 9.6 12.0002 11V13C12.0002 14.4 11.4002 15 10.0002 15C8.60018 15 8.00018 14.4 8.00018 13V11ZM16.5002 10C18.3602 10 19.0002 9 19.0002 7.75V6.25C19.0002 5 18.3702 4 16.5002 4C14.6302 4 14.0002 5 14.0002 6.25V7.75C14.0002 9 14.6302 10 16.5002 10ZM15.0002 6.25C15.0002 5.5 15.2602 5 16.5002 5C17.7402 5 18.0002 5.5 18.0002 6.25V7.75C18.0002 8.5 17.7402 9 16.5002 9C15.2602 9 15.0002 8.5 15.0002 7.75V6.25Z" fill="#010205"/>
<path d="M14.0002 14C13.9629 14.3402 13.8891 14.6755 13.7802 15C14.4928 15.3516 15.0845 15.9075 15.4799 16.5967C15.8752 17.286 16.0564 18.0774 16.0002 18.87V19H4.00018V18.87C3.92601 18.0784 4.09615 17.2832 4.4877 16.5912C4.87926 15.8993 5.47342 15.344 6.19018 15C6.08956 14.6748 6.02583 14.3394 6.00018 14C5.05313 14.3953 4.25411 15.0781 3.71585 15.9518C3.17759 16.8256 2.92726 17.8463 3.00018 18.87V20H17.0002V18.87C17.0484 17.8506 16.7878 16.8404 16.2525 15.9715C15.7173 15.1027 14.9323 14.4155 14.0002 14ZM21.0002 12.25C21.0445 11.6363 20.9174 11.0225 20.6331 10.4768C20.3488 9.93119 19.9185 9.47529 19.3902 9.16C19.2814 9.4766 19.1115 9.76879 18.8902 10.02C19.2407 10.2145 19.5302 10.5028 19.7262 10.8524C19.9223 11.2021 20.0171 11.5995 20.0002 12H15.0002V13H21.0002V12.25Z" fill="#010205"/>
</svg>
