<svg width="20" height="20" viewBox="0 0 20 20" fill="none" xmlns="http://www.w3.org/2000/svg">
<path fill-rule="evenodd" clip-rule="evenodd" d="M9.16668 10.8333C11.6667 10.8333 12.5 9.3 12.5 7.4V5.1C12.5 3.2 11.6667 1.66666 9.16668 1.66666C6.66668 1.66666 5.83335 3.2 5.83335 5.1V7.4C5.83335 9.3 6.66668 10.8333 9.16668 10.8333ZM6.66668 5.1C6.66668 2.76666 8.09168 2.5 9.16668 2.5C10.2417 2.5 11.6667 2.76666 11.6667 5.1V7.4C11.6667 9.73333 10.2417 10 9.16668 10C8.09168 10 6.66668 9.73333 6.66668 7.4V5.1Z" fill="white"/>
<path d="M2.50002 15.8333V14.5417C2.44067 13.7303 2.64675 12.9217 3.08718 12.2378C3.52761 11.5538 4.17851 11.0316 4.94168 10.75C4.79906 10.5117 4.67909 10.2606 4.58335 10C3.6769 10.3477 2.90516 10.9758 2.38054 11.7927C1.85591 12.6096 1.60582 13.5727 1.66668 14.5417V16.6667H10.8334V15.8333H2.50002Z" fill="white"/>
<path d="M13.3333 18.3123V10.8333H15.9069C17.451 10.8333 18.1338 11.4111 18.1338 13.1968C18.1338 14.5938 17.6716 15.2031 16.7787 15.3816L18.3543 18.3123H16.9783L15.5707 15.5812H14.5728V18.3123H13.3333ZM15.7598 11.9573H14.5728V14.5413H15.7808C16.5791 14.5413 16.8627 14.3732 16.8627 13.2283C16.8627 12.1674 16.5791 11.9573 15.7598 11.9573Z" fill="white"/>
</svg>
