<svg width="24" height="24" viewBox="0 0 24 24" fill="none" xmlns="http://www.w3.org/2000/svg">
<path fill-rule="evenodd" clip-rule="evenodd" d="M12 3.5C13.2 3.5 14.3 3.7 15.3 4.2C16.3 4.7 17.2 5.3 18 6C18.8 6.8 19.4 7.7 19.8 8.7C20.2 9.7 20.5 10.8 20.5 12C20.5 13.2 20.3 14.3 19.8 15.3C19.3 16.3 18.7 17.2 18 18C17.2 18.8 16.3 19.4 15.3 19.8C14.3 20.2 13.2 20.5 12 20.5C10.8 20.5 9.7 20.3 8.7 19.8C7.7 19.3 6.8 18.7 6 18C5.2 17.2 4.6 16.3 4.2 15.3C3.8 14.3 3.5 13.2 3.5 12C3.5 10.8 3.7 9.7 4.2 8.7C4.6 7.7 5.2 6.8 6 6C6.8 5.2 7.7 4.6 8.7 4.2C9.7 3.7 10.8 3.5 12 3.5ZM12.3 7.9V9H11.4V7.9H12.3ZM12.3 10.3V16.1H11.4V10.3H12.3Z" fill="#010205"/>
</svg>
