<svg width="24" height="24" viewBox="0 0 24 24" fill="none" xmlns="http://www.w3.org/2000/svg">
<path d="M12 14C15 14 16 12.16 16 9.88V7.12C16 4.84 15 3 12 3C9.00002 3 8.00002 4.84 8.00002 7.12V9.88C8.00002 12.16 9.00002 14 12 14ZM9.00002 7.12C9.00002 4.32 10.71 4 12 4C13.29 4 15 4.32 15 7.12V9.88C15 12.68 13.29 13 12 13C10.71 13 9.00002 12.68 9.00002 9.88V7.12Z" fill="#010205"/>
<path d="M21 18.45C21.0707 17.2863 20.7685 16.1305 20.1373 15.1503C19.5061 14.1702 18.5787 13.4169 17.49 13C17.3827 13.311 17.2419 13.6094 17.07 13.89C17.9866 14.2298 18.768 14.8583 19.2965 15.6807C19.8249 16.5032 20.0718 17.4751 20 18.45V20H4.00002V18.45C3.9288 17.4764 4.1761 16.5061 4.70462 15.6853C5.23314 14.8646 6.01421 14.238 6.93002 13.9C6.75887 13.6141 6.61491 13.3128 6.50002 13C5.41228 13.4173 4.48619 14.171 3.85664 15.1513C3.2271 16.1316 2.92698 17.2873 3.00002 18.45V21H21V18.45Z" fill="#010205"/>
</svg>
