<svg width="20" height="20" viewBox="0 0 20 20" fill="none" xmlns="http://www.w3.org/2000/svg">
<path d="M13.8583 12.2364H13.9167C13.9832 12.2253 14.044 12.1921 14.0894 12.1422C14.1347 12.0923 14.162 12.0286 14.1667 11.9614C14.1586 11.8847 14.1228 11.8136 14.066 11.7615C14.0093 11.7093 13.9354 11.6796 13.8583 11.678H13.1583C13.1063 11.6797 13.0557 11.6953 13.0118 11.7231C12.9678 11.751 12.9321 11.7901 12.9083 11.8364L12.6833 12.178H12.4583C12.3495 11.5493 12.0154 10.9817 11.5185 10.5813C11.0216 10.181 10.3959 9.97545 9.75834 10.003H6.90834C6.27803 9.97358 5.65821 10.1722 5.16236 10.5624C4.66652 10.9527 4.32784 11.5085 4.20834 12.128H3.98334L3.75834 11.7864C3.73458 11.7401 3.69887 11.701 3.65491 11.6731C3.61095 11.6453 3.56034 11.6297 3.50834 11.628H2.80834C2.73126 11.6296 2.65742 11.6593 2.60065 11.7115C2.54389 11.7636 2.5081 11.8347 2.5 11.9114C2.50471 11.9786 2.53193 12.0423 2.57729 12.0922C2.62265 12.1421 2.68349 12.1753 2.75 12.1864H3.33334L3.40834 12.2947C2.5 12.8697 2.5 14.2114 2.5 14.803V16.8947C2.49999 17.0546 2.56294 17.2081 2.67522 17.3219C2.78751 17.4358 2.94011 17.5008 3.1 17.503H4.16667C4.49167 17.503 5.15834 17.503 5.15834 16.7114L11.4833 16.6697V16.7114C11.4833 17.503 12.15 17.503 12.475 17.503H13.5417C13.704 17.501 13.8593 17.4368 13.9756 17.3236C14.0919 17.2104 14.1603 17.0569 14.1667 16.8947V14.803C14.1667 14.2114 14.1667 12.8697 13.2333 12.303L13.3083 12.1947L13.8583 12.2364ZM6.90834 10.8364H9.75834C10.1645 10.808 10.5682 10.9188 10.903 11.1506C11.2377 11.3823 11.4836 11.7212 11.6 12.1114H5.06667C5.18309 11.7212 5.42893 11.3823 5.76369 11.1506C6.09845 10.9188 6.50217 10.808 6.90834 10.8364ZM13.3333 14.803V16.6697H12.3167V16.253C12.3167 16.1425 12.2728 16.0365 12.1946 15.9584C12.1165 15.8803 12.0105 15.8364 11.9 15.8364H10.6917C10.6917 15.7259 10.6478 15.6199 10.5696 15.5417C10.4915 15.4636 10.3855 15.4197 10.275 15.4197H6.39167C6.28116 15.4197 6.17518 15.4636 6.09704 15.5417C6.0189 15.6199 5.975 15.7259 5.975 15.8364H4.76667C4.65616 15.8364 4.55018 15.8803 4.47204 15.9584C4.3939 16.0365 4.35 16.1425 4.35 16.253V16.6697H3.33334V14.803C3.33334 13.253 3.69167 12.9447 4.30834 12.9447H12.3583C12.975 12.9447 13.3333 13.253 13.3333 14.803Z" fill="#3761E4"/>
<path d="M12.5833 13.503H11.85C11.6039 13.5052 11.3687 13.6045 11.1954 13.7793C11.0222 13.9541 10.925 14.1903 10.925 14.4364C10.925 14.4474 10.9294 14.458 10.9372 14.4658C10.945 14.4736 10.9556 14.478 10.9667 14.478H12.7417C12.7588 14.4781 12.7758 14.4746 12.7915 14.4678C12.8072 14.461 12.8214 14.451 12.8331 14.4385C12.8449 14.426 12.8539 14.4112 12.8597 14.3951C12.8654 14.379 12.8678 14.3618 12.8667 14.3447V13.928C12.8667 13.5697 12.8167 13.503 12.5833 13.503ZM4.81667 13.503H4.08334C3.85 13.503 3.8 13.5697 3.8 13.928V14.3447C3.79886 14.3618 3.80125 14.379 3.80702 14.3951C3.81278 14.4112 3.82181 14.426 3.83353 14.4385C3.84526 14.451 3.85943 14.461 3.87516 14.4678C3.8909 14.4746 3.90786 14.4781 3.925 14.478H5.7C5.71105 14.478 5.72165 14.4736 5.72947 14.4658C5.73728 14.458 5.74167 14.4474 5.74167 14.4364C5.74168 14.1903 5.64449 13.9541 5.47126 13.7793C5.29802 13.6045 5.06276 13.5052 4.81667 13.503Z" fill="#3761E4"/>
<path fill-rule="evenodd" clip-rule="evenodd" d="M6.06951 2.12462C6.21387 2.05524 6.38522 2.07475 6.51029 2.1748L8.3674 3.66049L10.2023 2.55954C10.3185 2.48983 10.4613 2.48097 10.5852 2.53579C10.7092 2.5906 10.7987 2.70225 10.8252 2.83512L11.2419 4.91845L10.4248 5.08188L10.124 3.57832L8.29928 4.67318L6.66667 3.36709V6.78382L3.69449 6.04078L4.7542 8.1602L2.34686 8.96264L3.25 10.1668L2.58334 10.6668L1.33334 9.00017C1.25298 8.89302 1.22902 8.75377 1.26896 8.62593C1.30889 8.49809 1.40785 8.39724 1.53491 8.35488L3.57914 7.67347L2.54399 5.60317C2.47122 5.45763 2.48983 5.28304 2.59165 5.15611C2.69347 5.02918 2.85986 4.97314 3.01773 5.01261L5.83334 5.71651V2.50017C5.83334 2.34 5.92515 2.19401 6.06951 2.12462Z" fill="#3761E4"/>
<path fill-rule="evenodd" clip-rule="evenodd" d="M18.025 8.06969H18.0833C18.1498 8.05862 18.2107 8.02546 18.256 7.97557C18.3014 7.92568 18.3286 7.86196 18.3333 7.79469C18.3252 7.71803 18.2895 7.64695 18.2327 7.59479C18.1759 7.54263 18.1021 7.51296 18.025 7.51136H17.325C17.273 7.51305 17.2224 7.52863 17.1784 7.55647C17.1345 7.58431 17.0988 7.6234 17.075 7.66969L16.85 8.01136H16.625C16.5162 7.38259 16.1821 6.81499 15.6852 6.41468C15.1882 6.01438 14.5625 5.80879 13.925 5.83636H11.9083C11.278 5.80691 10.6582 6.00549 10.1624 6.39574C9.66652 6.78599 9.32784 7.34179 9.20834 7.96136H8.98334L8.75834 7.6197C8.73458 7.5734 8.69887 7.53431 8.65491 7.50647C8.61095 7.47863 8.56034 7.46305 8.50834 7.46136H7.80834C7.73126 7.46296 7.65742 7.49263 7.60065 7.54479C7.54389 7.59695 7.5081 7.66803 7.5 7.74469C7.50471 7.81196 7.53193 7.87568 7.57729 7.92557C7.62265 7.97546 7.68349 8.00862 7.75 8.01969H8.33334L8.40834 8.12803C8.02018 8.37374 7.79789 8.75946 7.67059 9.16683H8.56583C8.73271 8.86279 8.98501 8.77803 9.30834 8.77803H16.525C17.1417 8.77803 17.5 9.08636 17.5 10.6364V12.503H16.4833V12.0864C16.4833 11.9759 16.4394 11.8699 16.3613 11.7917C16.2832 11.7136 16.1772 11.6697 16.0667 11.6697H16.0615C15.9529 11.671 15.849 11.7148 15.7721 11.7917C15.6939 11.8698 15.65 11.9758 15.65 12.0863V12.5002L15.65 12.503V12.5447C15.65 13.3364 16.3167 13.3364 16.6417 13.3364H17.7083C17.8706 13.3344 18.0259 13.2701 18.1422 13.1569C18.2585 13.0437 18.3269 12.8902 18.3333 12.728V10.6364C18.3333 10.0447 18.3333 8.70303 17.4 8.13636L17.475 8.02803L18.025 8.06969ZM11.9083 6.66969H13.925C14.3312 6.64133 14.7349 6.75216 15.0696 6.98391C15.4044 7.21567 15.6502 7.55454 15.7667 7.94469H10.0667C10.1831 7.55454 10.4289 7.21567 10.7637 6.98391C11.0985 6.75216 11.5022 6.64133 11.9083 6.66969ZM16.75 9.33636H16.0167C15.7706 9.33856 15.5353 9.43786 15.3621 9.61266C15.1888 9.78745 15.0917 10.0236 15.0917 10.2697C15.0917 10.2807 15.0961 10.2913 15.1039 10.2992C15.1117 10.307 15.1223 10.3114 15.1333 10.3114H16.9083C16.9255 10.3114 16.9424 10.3079 16.9582 10.3011C16.9739 10.2943 16.9881 10.2844 16.9998 10.2719C17.0115 10.2593 17.0206 10.2446 17.0263 10.2284C17.0321 10.2123 17.0345 10.1951 17.0333 10.178V9.76136C17.0333 9.40303 16.9833 9.33636 16.75 9.33636Z" fill="#3761E4"/>
</svg>
