<svg width="16" height="16" viewBox="0 0 16 16" fill="none" xmlns="http://www.w3.org/2000/svg">
<path fill-rule="evenodd" clip-rule="evenodd" d="M10 5.92C10 7.44 9.33335 8.66667 7.33335 8.66667C5.33335 8.66667 4.66668 7.44 4.66668 5.92V4.08C4.66668 2.56 5.33335 1.33334 7.33335 1.33334C9.33335 1.33334 10 2.56 10 4.08V5.92ZM7.33335 2C6.47335 2 5.33335 2.21334 5.33335 4.08V5.92C5.33335 7.78667 6.47335 8 7.33335 8C8.19335 8 9.33335 7.78667 9.33335 5.92V4.08C9.33335 2.21334 8.19335 2 7.33335 2Z" fill="#010205"/>
<path d="M2.00001 12.6667H9.33335V13.3333H1.33335V11.6333C1.28466 10.8582 1.48473 10.0877 1.90443 9.43418C2.32413 8.78065 2.94152 8.2782 3.66668 8C3.74327 8.20852 3.83925 8.4094 3.95335 8.6C3.34281 8.82532 2.82209 9.24307 2.46974 9.79023C2.1174 10.3374 1.95253 10.9843 2.00001 11.6333V12.6667Z" fill="#010205"/>
<path d="M12.2997 12.9188H11.3333C11.4006 14.2969 11.9132 14.8515 13.3417 14.8515C14.7787 14.8515 15.3501 14.2297 15.3501 13.1709C15.3501 12.1289 14.8207 11.6751 13.8039 11.4146L13.3417 11.2885C12.6947 11.1205 12.3922 10.9692 12.3922 10.3641C12.3922 9.80112 12.7031 9.56583 13.3333 9.56583C14.0392 9.56583 14.2829 9.79272 14.3333 10.6499H15.2913C15.2409 9.32213 14.8291 8.66667 13.3249 8.66667C11.9468 8.66667 11.4006 9.30532 11.4006 10.381C11.4006 11.5154 11.972 11.9104 12.9468 12.1625L13.409 12.2801C14.056 12.4482 14.3501 12.6331 14.3501 13.1877C14.3501 13.8179 14.056 14.0532 13.3501 14.0532C12.5854 14.0532 12.3501 13.7591 12.2997 12.9188Z" fill="#010205"/>
</svg>
