<svg width="20" height="20" viewBox="0 0 20 20" fill="none" xmlns="http://www.w3.org/2000/svg">
<g clip-path="url(#clip0_6983_2977)">
<path fill-rule="evenodd" clip-rule="evenodd" d="M12.5 7.4C12.5 9.3 11.6667 10.8333 9.16668 10.8333C6.66668 10.8333 5.83335 9.3 5.83335 7.4V5.1C5.83335 3.2 6.66668 1.66666 9.16668 1.66666C11.6667 1.66666 12.5 3.2 12.5 5.1V7.4ZM9.16668 2.5C8.09168 2.5 6.66668 2.76666 6.66668 5.1V7.4C6.66668 9.73333 8.09168 10 9.16668 10C10.2417 10 11.6667 9.73333 11.6667 7.4V5.1C11.6667 2.76666 10.2417 2.5 9.16668 2.5Z" fill="#010205"/>
<path d="M2.50002 15.8333H11.6667V16.6667H1.66668V14.5417C1.60582 13.5727 1.85591 12.6096 2.38054 11.7927C2.90516 10.9758 3.6769 10.3477 4.58335 10C4.67909 10.2606 4.79906 10.5117 4.94168 10.75C4.17851 11.0316 3.52761 11.5538 3.08718 12.2378C2.64675 12.9217 2.44067 13.7303 2.50002 14.5417V15.8333Z" fill="#010205"/>
<path d="M15.3746 16.1485H14.1667C14.2507 17.8711 14.8915 18.5644 16.6772 18.5644C18.4734 18.5644 19.1877 17.7871 19.1877 16.4636C19.1877 15.1611 18.5259 14.5938 17.2549 14.2682L16.6772 14.1106C15.8683 13.9006 15.4902 13.7115 15.4902 12.9552C15.4902 12.2514 15.8788 11.9573 16.6667 11.9573C17.549 11.9573 17.8536 12.2409 17.9167 13.3123H19.1141C19.0511 11.6527 18.5364 10.8333 16.6562 10.8333C14.9335 10.8333 14.2507 11.6316 14.2507 12.9762C14.2507 14.3943 14.965 14.888 16.1835 15.2031L16.7612 15.3501C17.57 15.5602 17.9377 15.7913 17.9377 16.4846C17.9377 17.2724 17.57 17.5665 16.6877 17.5665C15.7318 17.5665 15.4377 17.1989 15.3746 16.1485Z" fill="#010205"/>
</g>
<defs>
<clipPath id="clip0_6983_2977">
<rect width="20" height="20" fill="white"/>
</clipPath>
</defs>
</svg>
