<svg width="79" height="32" viewBox="0 0 79 32" fill="none" xmlns="http://www.w3.org/2000/svg">
<path fill-rule="evenodd" clip-rule="evenodd" d="M10.5 9C10.5 7.61929 11.6193 6.5 13 6.5H27C28.3807 6.5 29.5 7.61929 29.5 9V23C29.5 24.3807 28.3807 25.5 27 25.5H13C11.6193 25.5 10.5 24.3807 10.5 23V9ZM13 7.5C12.1716 7.5 11.5 8.17157 11.5 9V23C11.5 23.8284 12.1716 24.5 13 24.5H27C27.8284 24.5 28.5 23.8284 28.5 23V9C28.5 8.17157 27.8284 7.5 27 7.5H13ZM17 10.5H13.5V9.5H17V10.5ZM21.3536 10.3536L18.9393 12.7678C18.4705 13.2366 17.8346 13.5 17.1716 13.5H13.5V12.5H17.1716C17.5694 12.5 17.9509 12.342 18.2322 12.0607L20.6464 9.64645L21.3536 10.3536ZM20.7071 16L26.3536 21.6464L25.6464 22.3536L19.7929 16.5H13.5V15.5H19.7929L25.6464 9.64645L26.3536 10.3536L20.7071 16ZM17.1716 19.5H13.5V18.5H17.1716C17.8346 18.5 18.4705 18.7634 18.9393 19.2322L21.3536 21.6464L20.6464 22.3536L18.2322 19.9393C17.9509 19.658 17.5694 19.5 17.1716 19.5ZM17 22.5H13.5V21.5H17V22.5Z" fill="#535457"/>
<path d="M37.4487 22V10.0336H39.4319V15.9496L43.8353 10.0336H46.0202L42.121 15.1765L46.0538 22H43.8353L40.8101 16.7227L39.4319 18.5546V22H37.4487ZM46.5901 19.8487C46.5901 18.1345 47.6826 17.4958 49.9011 17.0756L51.0271 16.8739V16.4706C51.0271 15.4118 50.8086 14.9748 49.8338 14.9748C48.8759 14.9748 48.5061 15.2437 48.4893 16.2857H46.7918C46.8422 14.437 47.6322 13.395 49.9515 13.395C52.4221 13.395 52.9431 14.7395 52.9431 16.3361V22H51.1111V21.0756C50.8254 21.6807 50.1868 22.1345 49.0943 22.1345C47.4977 22.1345 46.5901 21.3445 46.5901 19.8487ZM51.0271 19.1933V18.2185L50.1868 18.3529C48.8759 18.5378 48.4725 18.9244 48.4725 19.6471C48.4725 20.3529 48.8422 20.7227 49.5985 20.7227C50.4893 20.7227 51.0271 20.2521 51.0271 19.1933ZM57.5166 22.1345C55.3149 22.1345 54.441 21.0084 54.441 17.7647C54.441 14.5546 55.483 13.395 57.6679 13.395C58.5082 13.395 59.1637 13.6471 59.567 14.3697V10.0336H61.483V22H59.6511V20.8739C59.2477 21.7983 58.5082 22.1345 57.5166 22.1345ZM57.9704 20.6387C59.1469 20.6387 59.567 20.1345 59.567 17.7647C59.567 15.479 59.1301 15.0588 57.9704 15.0588C56.7603 15.0588 56.3738 15.5294 56.3738 17.7647C56.3738 20.1008 56.7603 20.6387 57.9704 20.6387ZM66.5798 22.1345C63.9579 22.1345 63.0504 20.9748 63.0504 17.7647C63.0504 14.521 63.9915 13.395 66.5798 13.395C69.168 13.395 70.1092 14.5882 70.1092 17.7647C70.1092 20.9748 69.1848 22.1345 66.5798 22.1345ZM66.5798 20.6387C67.7899 20.6387 68.1596 20.1176 68.1596 17.7647C68.1596 15.5294 67.7899 15.0588 66.5798 15.0588C65.3865 15.0588 64.9831 15.5294 64.9831 17.7647C64.9831 20.1345 65.3865 20.6387 66.5798 20.6387Z" fill="#535457"/>
</svg>
