<svg width="16" height="16" viewBox="0 0 16 16" fill="none" xmlns="http://www.w3.org/2000/svg">
<path fill-rule="evenodd" clip-rule="evenodd" d="M7.33335 8.66667C9.33335 8.66667 10 7.44 10 5.92V4.08C10 2.56 9.33335 1.33334 7.33335 1.33334C5.33335 1.33334 4.66668 2.56 4.66668 4.08V5.92C4.66668 7.44 5.33335 8.66667 7.33335 8.66667ZM5.33335 4.08C5.33335 2.21334 6.47335 2 7.33335 2C8.19335 2 9.33335 2.21334 9.33335 4.08V5.92C9.33335 7.78667 8.19335 8 7.33335 8C6.47335 8 5.33335 7.78667 5.33335 5.92V4.08Z" fill="white"/>
<path d="M2.00001 12.6667V11.6333C1.95253 10.9843 2.1174 10.3374 2.46974 9.79023C2.82209 9.24307 3.34281 8.82532 3.95335 8.6C3.83925 8.4094 3.74327 8.20852 3.66668 8C2.94152 8.2782 2.32413 8.78065 1.90443 9.43418C1.48473 10.0877 1.28466 10.8582 1.33335 11.6333V13.3333H8.66668V12.6667H2.00001Z" fill="white"/>
<path fill-rule="evenodd" clip-rule="evenodd" d="M11.3333 8.66667V14.6499H12.3249V12.465H13.4006C14.6022 12.465 15.1737 12.0448 15.1737 10.5574C15.1737 9.16247 14.6527 8.66667 13.4174 8.66667H11.3333ZM12.3249 9.56583H13.3081C13.9468 9.56583 14.1569 9.75911 14.1569 10.5826C14.1569 11.465 13.9636 11.6331 13.2997 11.6331H12.3249V9.56583Z" fill="white"/>
</svg>
