<svg width="24" height="24" viewBox="0 0 24 24" fill="none" xmlns="http://www.w3.org/2000/svg">
<path d="M8.6 14.06L3 19.64L4.35 21L10 15.41C9.46817 15.0329 8.99621 14.5778 8.6 14.06ZM15 3C13.8133 3 12.6533 3.35189 11.6666 4.01118C10.6799 4.67047 9.91085 5.60754 9.45672 6.7039C9.0026 7.80026 8.88378 9.00666 9.11529 10.1705C9.3468 11.3344 9.91824 12.4035 10.7574 13.2426C11.5965 14.0818 12.6656 14.6532 13.8295 14.8847C14.9933 15.1162 16.1997 14.9974 17.2961 14.5433C18.3925 14.0892 19.3295 13.3201 19.9888 12.3334C20.6481 11.3467 21 10.1867 21 9C21 7.4087 20.3679 5.88258 19.2426 4.75736C18.1174 3.63214 16.5913 3 15 3ZM15 14C14.0111 14 13.0444 13.7068 12.2221 13.1573C11.3999 12.6079 10.759 11.827 10.3806 10.9134C10.0022 9.99979 9.90315 8.99445 10.0961 8.02455C10.289 7.05464 10.7652 6.16373 11.4645 5.46447C12.1637 4.7652 13.0546 4.289 14.0245 4.09607C14.9945 3.90315 15.9998 4.00216 16.9134 4.3806C17.827 4.75904 18.6079 5.3999 19.1573 6.22215C19.7068 7.04439 20 8.01109 20 9C20 9.65661 19.8707 10.3068 19.6194 10.9134C19.3681 11.52 18.9998 12.0712 18.5355 12.5355C18.0712 12.9998 17.52 13.3681 16.9134 13.6194C16.3068 13.8707 15.6566 14 15 14Z" fill="#535457"/>
</svg>
