<svg width="20" height="20" viewBox="0 0 20 20" fill="none" xmlns="http://www.w3.org/2000/svg">
<path fill-rule="evenodd" clip-rule="evenodd" d="M7.50016 6.66667V10H8.3335L5.8335 14.1667V10.8333H5.00016L7.50016 6.66667ZM6.66683 3.33333C4.31683 3.33333 4.16683 3.925 4.16683 4.16667V16.6667H9.16683V4.25833C9.16683 4.00833 9.16683 3.33333 6.66683 3.33333ZM6.66683 2.5C9.3335 2.5 10.0002 3.28333 10.0002 4.25833V9.16667H10.8752C11.1471 9.16437 11.4167 9.21827 11.6668 9.325C11.9544 9.47473 12.1887 9.70954 12.3378 9.99738C12.487 10.2852 12.5437 10.6121 12.5002 10.9333V15.625C12.5002 16.5833 12.9168 16.6667 13.3335 16.6667C13.7502 16.6667 14.1668 16.5833 14.1668 15.625V9.16667C13.3335 9.06667 12.5002 8.33333 12.5002 6.66667H13.3335V5H14.1668V6.66667H15.0002V5H15.8335V6.66667H16.6668C16.6668 8.33333 15.8335 9.08333 15.0002 9.16667V15.625C15.0002 16.6667 14.6002 17.5 13.3335 17.5C12.0668 17.5 11.6668 16.6667 11.6668 15.625V10.8333C11.6668 10.225 11.4502 10 10.9002 10H10.0002V17.5H3.3335V4.25833C3.3335 3.28333 4.01683 2.5 6.66683 2.5Z" fill="#3761E4"/>
</svg>
