<svg width="24" height="24" viewBox="0 0 24 24" fill="none" xmlns="http://www.w3.org/2000/svg">
<path fill-rule="evenodd" clip-rule="evenodd" d="M2.5 5C2.5 3.61929 3.61929 2.5 5 2.5H19C20.3807 2.5 21.5 3.61929 21.5 5V19C21.5 20.3807 20.3807 21.5 19 21.5H5C3.61929 21.5 2.5 20.3807 2.5 19V5ZM5 3.5C4.17157 3.5 3.5 4.17157 3.5 5V19C3.5 19.8284 4.17157 20.5 5 20.5H19C19.8284 20.5 20.5 19.8284 20.5 19V5C20.5 4.17157 19.8284 3.5 19 3.5H5ZM9 6.5H5.5V5.5H9V6.5ZM13.3536 6.35355L10.9393 8.76777C10.4705 9.23661 9.83461 9.5 9.17157 9.5H5.5V8.5H9.17157C9.5694 8.5 9.95093 8.34196 10.2322 8.06066L12.6464 5.64645L13.3536 6.35355ZM12.7071 12L18.3536 17.6464L17.6464 18.3536L11.7929 12.5H5.5V11.5H11.7929L17.6464 5.64645L18.3536 6.35355L12.7071 12ZM9.17157 15.5H5.5V14.5H9.17157C9.83461 14.5 10.4705 14.7634 10.9393 15.2322L13.3536 17.6464L12.6464 18.3536L10.2322 15.9393C9.95093 15.658 9.5694 15.5 9.17157 15.5ZM9 18.5H5.5V17.5H9V18.5Z" fill="#535457"/>
</svg>
