<svg width="16" height="16" viewBox="0 0 16 16" fill="none" xmlns="http://www.w3.org/2000/svg">
<path fill-rule="evenodd" clip-rule="evenodd" d="M4.66658 3.01118C5.65328 2.35189 6.81331 2 8 2C9.5913 2 11.1174 2.63214 12.2426 3.75736C13.3679 4.88258 14 6.4087 14 8C14 9.18669 13.6481 10.3467 12.9888 11.3334C12.3295 12.3201 11.3925 13.0892 10.2961 13.5433C9.19975 13.9974 7.99335 14.1162 6.82946 13.8847C5.66558 13.6532 4.59648 13.0818 3.75736 12.2426C2.91825 11.4035 2.3468 10.3344 2.11529 9.17054C1.88378 8.00666 2.0026 6.80026 2.45673 5.7039C2.91085 4.60754 3.67989 3.67047 4.66658 3.01118ZM7.15399 4.20143C7.47631 4.06494 7.8233 3.99635 8.17331 3.99995C8.81823 3.98562 9.44258 4.22725 9.90983 4.672C10.3771 5.11676 10.6492 5.72845 10.6666 6.37329C10.6638 6.68826 10.5973 6.9994 10.4713 7.28808C10.3453 7.57676 10.1623 7.83703 9.93331 8.05329C9.79262 8.17205 9.6408 8.27698 9.47998 8.36662C9.05998 8.61329 8.69998 8.82662 8.69998 9.49329V9.99995H7.63998V9.50662C7.63607 9.0841 7.75579 8.66966 7.9844 8.31432C8.213 7.95897 8.54053 7.67822 8.92665 7.50662C9.01834 7.45676 9.10535 7.39874 9.18665 7.33329C9.31786 7.20993 9.42272 7.06127 9.49491 6.89627C9.56709 6.73128 9.6051 6.55337 9.60665 6.37329C9.5979 6.00077 9.44239 5.64677 9.17396 5.38833C8.90553 5.12989 8.5459 4.98791 8.17331 4.99329C7.97095 4.99311 7.77071 5.03443 7.58495 5.11469C7.39919 5.19496 7.23187 5.31246 7.09331 5.45995C6.96967 5.59265 6.87439 5.74917 6.81331 5.91995L6.63998 6.39329L5.64665 6.05995L5.81998 5.58662C5.9261 5.29311 6.08923 5.02349 6.29998 4.79329C6.54095 4.53941 6.83167 4.33793 7.15399 4.20143ZM7.33998 10.6666H8.67331V12H7.33998V10.6666Z" fill="#6B6D70"/>
</svg>
