<svg width="20" height="20" viewBox="0 0 20 20" fill="none" xmlns="http://www.w3.org/2000/svg">
<path fill-rule="evenodd" clip-rule="evenodd" d="M9.16667 3.38558C6.63536 3.38558 4.58333 5.43761 4.58333 7.96891V9.94808H3.75V7.96891C3.75 4.97737 6.17512 2.55225 9.16667 2.55225H10.8333C13.8249 2.55225 16.25 4.97737 16.25 7.96891V9.94808H15.4167V7.96891C15.4167 5.43761 13.3646 3.38558 10.8333 3.38558H9.16667Z" fill="#3761E4"/>
<path fill-rule="evenodd" clip-rule="evenodd" d="M5.41667 10.0002H4.16667C3.70643 10.0002 3.33333 10.3733 3.33333 10.8335V13.3335C3.33333 13.7937 3.70643 14.1668 4.16667 14.1668H5.41667V10.0002ZM4.16667 9.16683C3.24619 9.16683 2.5 9.91302 2.5 10.8335V13.3335C2.5 14.254 3.24619 15.0002 4.16667 15.0002H6.25V9.16683H4.16667Z" fill="#3761E4"/>
<path fill-rule="evenodd" clip-rule="evenodd" d="M10.8333 16.6668H9.16667V17.5002H10.8333V16.6668ZM9.16667 15.8335C8.70643 15.8335 8.33333 16.2066 8.33333 16.6668V17.5002C8.33333 17.9604 8.70643 18.3335 9.16667 18.3335H10.8333C11.2936 18.3335 11.6667 17.9604 11.6667 17.5002V16.6668C11.6667 16.2066 11.2936 15.8335 10.8333 15.8335H9.16667Z" fill="#3761E4"/>
<path fill-rule="evenodd" clip-rule="evenodd" d="M14.5833 10.0002H15.8333C16.2936 10.0002 16.6667 10.3733 16.6667 10.8335V13.3335C16.6667 13.7937 16.2936 14.1668 15.8333 14.1668H14.5833V10.0002ZM15.8333 9.16683C16.7538 9.16683 17.5 9.91302 17.5 10.8335V13.3335C17.5 14.254 16.7538 15.0002 15.8333 15.0002H13.75V9.16683H15.8333Z" fill="#3761E4"/>
<path fill-rule="evenodd" clip-rule="evenodd" d="M14.7857 15.0002C13.945 16.0181 12.6733 16.6668 11.25 16.6668V17.5002C13.1677 17.5002 14.8526 16.5036 15.8152 15.0002H14.7857Z" fill="#3761E4"/>
</svg>
