<svg width="228" height="16" viewBox="0 0 228 16" fill="none" xmlns="http://www.w3.org/2000/svg">
<path d="M25.5934 11.6959C28.0956 11.6959 29.4428 10.3477 29.4428 7.84383V4.04383C29.4428 1.53999 28.0956 0.191772 25.5934 0.191772H0V15.8082H3.5373V11.6959H25.5934ZM25.9055 4.25205V7.63561C25.9055 8.04164 25.6871 8.26027 25.2813 8.26027H3.5373V3.62739H25.2813C25.6871 3.62739 25.9055 3.84602 25.9055 4.25205ZM37.3498 15.8082C34.8476 15.8082 33.5003 14.46 33.5003 11.9562V4.04383C33.5003 1.53999 34.8476 0.191772 37.3498 0.191772H58.5216C61.0237 0.191772 62.371 1.53999 62.371 4.04383V11.9562C62.371 14.46 61.0237 15.8082 58.5216 15.8082H37.3498ZM58.2094 12.3726C58.6152 12.3726 58.8337 12.154 58.8337 11.7479V4.25205C58.8337 3.84602 58.6152 3.62739 58.2094 3.62739H37.6619C37.2561 3.62739 37.0376 3.84602 37.0376 4.25205V11.7479C37.0376 12.154 37.2561 12.3726 37.6619 12.3726H58.2094ZM92.386 10.4986C94.4587 11.3709 95.9157 13.4189 95.9233 15.8082H92.386C92.386 12.9973 91.0856 11.6959 88.2765 11.6959H70.0178V15.8082H66.4805V0.191772H92.0739C94.576 0.191772 95.9233 1.53999 95.9233 4.04383V6.65385C95.9233 9.0515 94.6879 10.3893 92.386 10.4986ZM91.7618 8.26027C92.1676 8.26027 92.386 8.04164 92.386 7.63561V4.25205C92.386 3.84602 92.1676 3.62739 91.7618 3.62739H70.0178V8.26027H91.7618ZM99.8248 4.04383C99.8248 1.53999 101.172 0.191772 103.674 0.191772H128.747V3.10684H103.986C103.581 3.10684 103.362 3.32547 103.362 3.7315V5.9178C103.362 6.32383 103.581 6.54246 103.986 6.54246H125.418C127.92 6.54246 129.268 7.89068 129.268 10.3945V11.9562C129.268 14.46 127.92 15.8082 125.418 15.8082H100.345V12.8931H125.106C125.512 12.8931 125.73 12.6745 125.73 12.2685V10.0822C125.73 9.67616 125.512 9.45753 125.106 9.45753H103.674C101.172 9.45753 99.8248 8.10931 99.8248 5.60547V4.04383ZM133.273 4.04383C133.273 1.53999 134.62 0.191772 137.123 0.191772H161.572V3.62739H137.435C137.029 3.62739 136.81 3.84602 136.81 4.25205V11.7479C136.81 12.154 137.029 12.3726 137.435 12.3726H161.572V15.8082H137.123C134.62 15.8082 133.273 14.46 133.273 11.9562V4.04383ZM193.407 0.191772V15.8082H189.87V9.7178H169.218V15.8082H165.681V0.191772H169.218V6.28218H189.87V0.191772H193.407ZM201.106 3.10684V6.54246H228V9.45753H201.106V12.8931H228V15.8082H197.569V0.191772H228V3.10684H201.106Z" fill="#535457"/>
</svg>
