<svg width="24" height="24" viewBox="0 0 24 24" fill="none" xmlns="http://www.w3.org/2000/svg">
<path d="M16.49 3.52C16.0002 3.20204 15.4335 3.02237 14.85 3C14.3807 3.0278 13.9276 3.18185 13.5386 3.44588C13.1496 3.70991 12.8391 4.07411 12.64 4.5L5.99999 16V20.28C5.99854 20.4039 6.02907 20.526 6.08863 20.6346C6.14819 20.7432 6.23477 20.8346 6.33999 20.9C6.44871 20.9653 6.57314 20.9999 6.69999 21C6.82235 20.9998 6.94271 20.9689 7.04999 20.91L10.78 18.71L17.48 7.36C17.7161 7.05804 17.8796 6.70583 17.9578 6.33061C18.0361 5.95538 18.027 5.56718 17.9314 5.19601C17.8357 4.82485 17.6559 4.48066 17.406 4.19004C17.1561 3.89943 16.8426 3.67017 16.49 3.52ZM10.05 18L6.99999 19.78V16.27L12.28 7.12L15.43 8.86L10.05 18ZM16.62 6.85L15.94 8L12.78 6.26L13.5 5C14.1 4 14.67 4 14.85 4C15.2599 4.02401 15.6564 4.15503 16 4.38C16.4566 4.5974 16.8139 4.97973 17 5.45C17.0602 5.94833 16.9239 6.4505 16.62 6.85Z" fill="#010205"/>
</svg>
