<svg width="20" height="20" viewBox="0 0 20 20" fill="none" xmlns="http://www.w3.org/2000/svg">
<g opacity="0.9">
<path d="M8.75018 12.5001L6.66684 10.0001H7.91684L8.74184 11.1334L12.5002 6.66673H13.7502L8.75018 12.5001Z" fill="#3761E4"/>
<path fill-rule="evenodd" clip-rule="evenodd" d="M10.0002 2.05762L16.2502 4.28976C16.2502 6.90195 16.5959 9.72026 15.8151 12.258C14.9533 15.0586 12.4992 16.7164 10.0002 17.9659C7.5012 16.7164 5.04703 15.0586 4.18531 12.258C3.39441 9.68758 3.75022 6.93321 3.75022 4.28976L10.0002 2.05762ZM4.58298 4.87723C4.5739 7.24205 4.27706 9.72253 4.98179 12.0129C5.55056 13.8615 6.86172 15.4295 10.0002 17.0332C13.1386 15.4295 14.4498 13.8615 15.0186 12.0129C15.7173 9.74217 15.4264 7.21576 15.4174 4.87723L10.0002 2.9425L4.58298 4.87723Z" fill="#3761E4"/>
</g>
</svg>
