<svg width="24" height="24" viewBox="0 0 24 24" fill="none" xmlns="http://www.w3.org/2000/svg">
<path d="M11.5 18.94C10.2929 18.9335 9.10541 18.6334 8.04012 18.0656C6.97483 17.4977 6.06372 16.6792 5.3854 15.6806C4.70709 14.682 4.28194 13.5334 4.14666 12.3338C4.01138 11.1343 4.17003 9.91978 4.60891 8.7952C5.04778 7.67063 5.75372 6.66974 6.66578 5.8789C7.57784 5.08807 8.66864 4.53104 9.84405 4.2559C11.0195 3.98076 12.2442 3.99576 13.4125 4.29961C14.5808 4.60346 15.6576 5.18703 16.55 5.99997L17.27 5.22997C16.0576 4.10463 14.5432 3.35752 12.9124 3.08024C11.2816 2.80295 9.60533 3.00753 8.0891 3.66891C6.57288 4.33029 5.28258 5.41971 4.3764 6.80362C3.47023 8.18752 2.98755 9.80577 2.98755 11.46C2.98755 13.1142 3.47023 14.7324 4.3764 16.1163C5.28258 17.5002 6.57288 18.5896 8.0891 19.251C9.60533 19.9124 11.2816 20.117 12.9124 19.8397C14.5432 19.5624 16.0576 18.8153 17.27 17.69L16.55 17C15.1708 18.2591 13.3675 18.9519 11.5 18.94Z" fill="#010205"/>
<path d="M17 15.5L21 11.5L17 7.49997V8.99997L19 11H10V12H19L17 14V15.5Z" fill="#010205"/>
</svg>
