<svg width="24" height="24" viewBox="0 0 24 24" fill="none" xmlns="http://www.w3.org/2000/svg">
<path d="M18 13V8.42C18 3.32 13.31 3 12.16 3H11.84C10.69 3 6 3.32 6 8.42V13L4 17H20L18 13ZM6.89 13.45L7 13.24V8.42C6.93054 7.66925 7.08304 6.91463 7.43858 6.24978C7.79412 5.58492 8.33705 5.03908 9 4.68C9.88034 4.23403 10.8531 4.0011 11.84 4H12.16C13.61 4 17 4.43 17 8.42V13.24L17.11 13.45L18.38 16H5.62L6.89 13.45ZM12 20C11.4696 20 10.9609 19.7893 10.5858 19.4142C10.2107 19.0391 10 18.5304 10 18H9C9 18.7956 9.31607 19.5587 9.87868 20.1213C10.4413 20.6839 11.2044 21 12 21C12.7956 21 13.5587 20.6839 14.1213 20.1213C14.6839 19.5587 15 18.7956 15 18H14C14 18.5304 13.7893 19.0391 13.4142 19.4142C13.0391 19.7893 12.5304 20 12 20Z" fill="#535457"/>
</svg>
