<svg width="24" height="24" viewBox="0 0 24 24" fill="none" xmlns="http://www.w3.org/2000/svg">
<path d="M12 3C10.22 3 8.47991 3.52784 6.99987 4.51677C5.51983 5.50571 4.36628 6.91131 3.68509 8.55585C3.0039 10.2004 2.82567 12.01 3.17294 13.7558C3.5202 15.5016 4.37737 17.1053 5.63604 18.364C6.89472 19.6226 8.49836 20.4798 10.2442 20.8271C11.99 21.1743 13.7996 20.9961 15.4442 20.3149C17.0887 19.6337 18.4943 18.4802 19.4832 17.0001C20.4722 15.5201 21 13.78 21 12C21 9.61305 20.0518 7.32387 18.364 5.63604C16.6761 3.94821 14.387 3 12 3ZM12 20C10.4178 20 8.87104 19.5308 7.55544 18.6518C6.23985 17.7727 5.21447 16.5233 4.60897 15.0615C4.00347 13.5997 3.84504 11.9911 4.15372 10.4393C4.4624 8.88743 5.22433 7.46197 6.34315 6.34315C7.46197 5.22433 8.88743 4.4624 10.4393 4.15372C11.9911 3.84504 13.5997 4.00346 15.0615 4.60896C16.5233 5.21447 17.7727 6.23984 18.6518 7.55544C19.5308 8.87103 20 10.4177 20 12C20 14.1217 19.1572 16.1566 17.6569 17.6569C16.1566 19.1571 14.1217 20 12 20Z" fill="#010205"/>
<path d="M12.26 6C11.735 5.99459 11.2145 6.09747 10.731 6.30222C10.2475 6.50697 9.81146 6.80918 9.45 7.19C9.13389 7.53531 8.88919 7.93974 8.73 8.38L8.47 9.09L9.96 9.59L10.22 8.88C10.3116 8.62383 10.4545 8.38904 10.64 8.19C10.8478 7.96877 11.0988 7.79251 11.3775 7.67211C11.6561 7.55171 11.9565 7.48973 12.26 7.49C12.8189 7.48194 13.3583 7.69491 13.761 8.08257C14.1636 8.47023 14.3969 9.00122 14.41 9.56C14.4077 9.83013 14.3507 10.097 14.2424 10.3445C14.1341 10.592 13.9768 10.815 13.78 11C13.6581 11.0982 13.5275 11.1852 13.39 11.26C12.8108 11.5174 12.3195 11.9385 11.9766 12.4715C11.6337 13.0046 11.4541 13.6262 11.46 14.26V15H13.05V14.24C13.05 13.24 13.59 12.92 14.22 12.55C14.4612 12.4155 14.689 12.2581 14.9 12.08C15.2435 11.7556 15.518 11.3652 15.707 10.9322C15.896 10.4992 15.9957 10.0325 16 9.56C15.9738 8.59274 15.5656 7.67521 14.8648 7.00808C14.1639 6.34094 13.2274 5.9785 12.26 6ZM13.01 16H11.01V18H13.01V16Z" fill="#010205"/>
</svg>
